<?xml version="1.0" standalone="no"?>
<!DOCTYPE svg PUBLIC "-//W3C//DTD SVG 1.1//EN" "http://www.w3.org/Graphics/SVG/1.1/DTD/svg11.dtd" >
<svg xmlns="http://www.w3.org/2000/svg">
<metadata>
This is a custom SVG webfont generated by Font Squirrel.
Copyright   : Christmas Card font v20 2000 2002 HLohner HLohneraolcom   wwwharoldsfontscom Based on the hand lettered opening titles of the film Its a Wonderful Life Art Director Jack Okey
</metadata>
<defs>
<font id="ChristmasCardII" horiz-adv-x="712" >
<font-face units-per-em="2048" ascent="1638" descent="-410" />
<missing-glyph horiz-adv-x="272" />
<glyph unicode=" "  horiz-adv-x="272" />
<glyph unicode="&#x09;" horiz-adv-x="272" />
<glyph unicode="&#xa0;" horiz-adv-x="272" />
<glyph unicode="&#x22;" horiz-adv-x="679" d="M37 1524l170 -230q-39 -104 -144 -159l29 -56q125 61 176 107q78 68 113 172l-184 246zM309 1591l170 -227q-39 -104 -143 -162l29 -53q127 63 176 104q78 66 112 172l-184 246z" />
<glyph unicode="&#x26;" horiz-adv-x="1624" d="M-29 469q0 141 113 256q96 98 244 147q-168 96 -168 263q0 193 121.5 315.5t312.5 122.5q201 0 321 -125q8 53 72 190q41 90 53 107q37 49 105 49q47 0 47 -61q0 -33 -37 -68q-20 -18 -63 -55q-94 -88 -95 -242q0 -35 15 -90q8 -33 22 -104l-90 -5q-18 127 -92 215 q-86 96 -207 97q-102 0 -175 -93.5t-73 -197.5q0 -102 79 -200.5t179 -98.5l684 -2q37 0 108 15.5t107 15.5q35 0 64 -17q37 -20 37 -51t-34 -48.5t-67 -17.5q-18 0 -55 10.5t-55 10.5l-115 -2q0 -35 -7 -104.5t-7 -104.5q0 -805 420 -889q135 59 159 60q72 0 72 -68 q0 -39 -49 -68q-41 -23 -84 -22q-31 0 -88 14.5t-82 16.5v-2q-367 137 -428 714q-94 -229 -254 -315q-141 -76 -416 -76q-594 0 -594 508zM240 442q0 -176 137 -286q129 -106 307 -107q215 0 328 244q84 182 84 440v72q-197 8 -305 8q-248 0 -373 -61q-178 -89 -178 -310z " />
<glyph unicode="'" horiz-adv-x="380" d="M-25 1311l172 88q68 -14 117 -59.5t53 -110.5l-221 -234l-47 47l121 162q-19 72 -195 107z" />
<glyph unicode="(" horiz-adv-x="413" />
<glyph unicode=")" horiz-adv-x="413" />
<glyph unicode="," horiz-adv-x="380" d="M2 86l172 86q70 -12 118 -57t52 -113l-221 -233l-47 47l121 164q-19 71 -195 106z" />
<glyph unicode="-" horiz-adv-x="430" d="M72 330l303 151l94 -47l-305 -151zM72 506l303 151l94 -45l-305 -153z" />
<glyph unicode="." horiz-adv-x="442" d="M53 150l162 81l174 -168l-162 -81z" />
<glyph unicode="/" horiz-adv-x="354" d="M14 -113l363 1258l72 -21l-363 -1257z" />
<glyph unicode="0" horiz-adv-x="1949" d="M-16 1642q0 57 51 58q68 0 139 -111q373 -174 762 -174q197 0 438 68q276 78 408 194q72 123 129 123q55 0 55 -55q0 -74 -49 -109q-55 -27 -111 -51q-80 -49 -245 -137q-199 -215 -535 -727q279 -434 492 -703q63 -20 127 -45l-3 2q125 -49 216 -88q104 -47 104 -139 q0 -55 -57 -55q-55 0 -121 110q-150 76 -354 134q-256 72 -469 71q-444 0 -799 -231q-57 -98 -113 -99q-57 0 -57 56q0 86 74 129q72 29 141 57q39 20 115 57q240 254 555 689q-371 532 -586 778q-92 33 -187 65q-120 55 -120 133zM698 78q123 18 252 18q115 0 230 -14 q-70 178 -256 506q-232 -287 -226 -510zM717 1339q78 -184 262 -538q211 287 211 430q0 59 -68 104q-88 -10 -176 -10q-114 0 -229 14z" />
<glyph unicode="1" horiz-adv-x="1028" d="M-16 -174q0 88 141 162q106 55 223 75q100 322 101 691q0 319 -87 655q-123 25 -231 80q-147 76 -147 166q0 76 65 76q55 0 111 -152q133 -96 348 -96q207 0 356 86q66 137 121 137q61 0 62 -70q0 -86 -134 -153q-96 -49 -208 -72q-86 -336 -87 -649q0 -354 109 -701 q35 -27 127 -62.5t129 -64.5q63 -47 64 -110q0 -70 -62 -70q-55 0 -121 140q-152 92 -364 92q-211 0 -344 -95q-51 -141 -107 -141q-65 0 -65 76z" />
<glyph unicode="2" horiz-adv-x="1927" d="M-4 1704q0 55 57 55q49 0 88 -51q2 -4 54 -92q393 -203 766 -203q172 0 393 62q250 70 346 167q6 8 63 97q39 61 88 61q57 0 58 -55q0 -55 -31 -88q-41 -43 -362 -219q-98 -365 -99 -713q0 -379 111 -729q182 -61 237 -88q166 -78 166 -160q0 -55 -57 -55t-121 110 q-395 205 -770 205q-401 0 -754 -237q-51 -78 -59 -90q-43 -55 -84 -56q-57 0 -57 56q0 63 37 96q119 80 397 221q111 342 110 719q0 344 -88 686q-133 41 -372 156q-57 29 -82 51q-35 33 -35 94zM731 729q0 -305 103 -639q70 6 141 6q90 0 182 -10q102 324 103 639 q0 283 -84 614q-100 -14 -205 -14q-76 0 -156 8q-84 -328 -84 -604z" />
<glyph unicode="3" horiz-adv-x="2469" d="M4 1704q0 55 55 55q68 0 131 -127q522 -217 1033 -217q565 0 1032 258q76 131 133 131q55 0 55 -55q0 -72 -45 -107q-8 -6 -104 -51q-164 -76 -305 -137q-86 -340 -86 -719q0 -410 102 -749q100 -29 307 -107q76 -29 107 -53q47 -39 47 -105q0 -55 -56 -55 q-57 0 -135 133q-158 63 -321 109l-17 -4l-2 10q-350 94 -684 94q-563 0 -1036 -268q-66 -115 -123 -115q-55 0 -55 56q0 80 63 118q43 16 131 51q45 23 164 78q113 352 113 781q0 401 -90 747q-180 51 -246 82q-168 76 -168 166zM666 729q0 -342 104 -682q123 27 252 39 q104 326 104 637q0 279 -86 610q-145 12 -290 39q-84 -334 -84 -643zM1284 727q0 -301 105 -635q129 -6 260 -26q96 317 96 653q0 313 -84 645q-143 -27 -291 -35q-86 -330 -86 -602z" />
<glyph unicode="4" horiz-adv-x="2510" d="M-4 1706q0 53 57 53q53 0 137 -137q530 -205 1076 -205q602 0 1079 242q70 121 127 121t57 -56q0 -78 -61 -116q-2 0 -125 -52q-45 -20 -166 -71q-78 -119 -149 -297q-39 -104 -123 -311q-53 -111 -183 -404q-35 -84 -34 -188q0 -121 51 -238q217 -41 434 -119l-6 9 q63 -20 215 -78q102 -43 102 -140q0 -55 -55 -55q-57 0 -127 121q-233 96 -526 160q-309 66 -547 65q-530 0 -1004 -246q-61 -119 -129 -118q-55 0 -55 53q0 80 63 119q25 10 127 51q74 31 267 111q100 324 100 710q0 375 -96 740q-217 55 -432 145l2 4q-76 41 -76 127z M756 711q0 -313 98 -639q180 29 367 28q113 0 229 -10q-20 307 -166 653q-111 264 -321 600l-115 15q-92 -348 -92 -647zM1370 1329q51 -563 232 -987q12 119 75 272q57 143 129 254q72 164 72 303q0 145 -100 203q-197 -39 -408 -45z" />
<glyph unicode="5" horiz-adv-x="2095" d="M-16 1659q0 55 55 55q59 0 135 -133q332 -154 811 -154q612 0 957 232q57 100 114 100t58 -53q0 -80 -78 -127q-123 -74 -404 -158q-109 -160 -289 -569q-195 -444 -194 -582q0 -123 47 -233q166 -18 490 -148q84 -33 106 -51q47 -37 47 -106q0 -53 -55 -54 q-59 0 -135 132q-279 147 -594 147q-307 0 -543 -145q-66 -113 -123 -113q-55 0 -55 55q0 76 59 115q20 14 127 53q137 51 193 70q113 37 198 47q-33 631 -473 1362q-111 27 -305 100q-76 29 -104 53q-45 37 -45 105zM831 1346q55 -592 230 -1022q8 141 145 413 q133 264 133 418q0 143 -106 195q-113 -10 -229 -11q-87 1 -173 7z" />
<glyph unicode="6" horiz-adv-x="2586" d="M-16 1683q0 55 55 56q59 0 129 -125q143 -53 315 -98q82 -23 363 -56q260 -31 358 -28q295 8 596 57q360 59 572 164q70 123 127 123t57 -56q0 -74 -59 -114q-12 -8 -121 -52q-88 -35 -320 -120q-90 -346 -90 -701q0 -381 105 -723q68 -16 245 -63q10 -4 174 -62 q100 -47 101 -137q0 -55 -56 -55q-59 0 -127 119q-520 199 -1032 198q-559 0 -1024 -229q-74 -127 -131 -127q-55 0 -55 55q0 72 49 109q23 16 113 51l272 104q158 55 281 80q-18 631 -486 1395q-129 39 -133 39l-2 2l-4 -4q-86 31 -174 59q-98 49 -98 139zM799 1364 q55 -580 233 -1008q16 125 152 389q123 240 123 394q0 135 -93 190q-206 4 -415 35zM1116 301q0 -106 43 -211q104 8 209 8q168 0 340 -20q100 319 100 641q0 301 -88 639q-63 -8 -127 -15q-86 -123 -125 -188q-53 -88 -103 -198.5t-148 -329.5q-101 -226 -101 -326z" />
<glyph unicode="7" horiz-adv-x="2867" d="M-16 1714q0 59 51 60q57 0 151 -129q588 -195 1231 -195q696 0 1243 252q86 123 146 123q51 0 51 -58q0 -86 -152 -155l-221 -78q-82 -328 -82 -723q0 -440 101 -772q92 -25 270 -86q59 -27 59 -115q0 -57 -53 -57q-57 0 -149 127q-567 188 -1098 188q-625 0 -1155 -239 q-27 -39 -60 -84q-41 -45 -90 -45q-53 0 -53 59q0 57 45 92q20 16 94 45q113 45 228 90q133 51 231 78q-14 346 -149 739q-123 360 -320 685q-41 12 -127 38q-192 62 -192 160zM711 1423q57 -598 219 -1017q16 125 145 380q119 236 119 377q0 66 -31 121q-35 63 -92 74z M1016 342q0 -100 35 -192q262 39 538 34q94 303 94 596q0 268 -79 584l-125 -2q-223 -319 -293 -531l-10 -30q-37 -74 -107 -221q-53 -121 -53 -238zM1829 788q0 -299 104 -630q117 -14 232 -35q94 305 94 663q0 334 -80 656q-127 -29 -262 -47q-88 -333 -88 -607z" />
<glyph unicode="8" horiz-adv-x="3682" d="M-16 1714q0 59 51 60q61 0 147 -125q840 -236 1643 -236q918 0 1632 270q88 129 150 129q53 0 53 -59q0 -104 -154 -141l2 4q-131 -59 -289 -107q-96 -358 -96 -778q0 -442 105 -788q199 -39 256 -58q176 -57 176 -149q0 -57 -53 -58q-66 0 -142 115q-776 213 -1591 213 q-78 0 -158 -2l-2 -4q-307 14 -803 -74v-8q-195 4 -665 -164q-86 -125 -148 -125q-53 0 -53 58q0 88 133 137q319 117 643 178q-20 365 -157 774q-129 395 -330 721q-82 33 -252 88v4q-98 37 -98 125zM741 1415q59 -637 230 -1077q12 139 147 422q129 268 129 411 q0 131 -88 189q-211 20 -418 55zM1059 279q0 -121 45 -232q264 35 547 45q98 313 98 619q0 285 -86 616l-139 6q-137 -201 -287 -516q-178 -376 -178 -538zM1907 715q0 -299 96 -621q127 -4 254 -12q98 317 98 625q0 293 -90 634q-135 -10 -274 -14q-84 -331 -84 -612z M2515 717q0 -334 102 -668q125 -16 250 -35q98 319 99 707q0 362 -87 702q-133 -27 -272 -45q-92 -348 -92 -661z" />
<glyph unicode="9" horiz-adv-x="2445" d="M-4 1702q0 57 53 57q59 0 127 -96q414 -174 787 -201q217 -14 258 -12q385 27 444 37q217 35 432 139q76 37 160 82q61 80 65 82q39 49 88 49q53 0 54 -59q0 -61 -47 -94q-23 -8 -97 -46q-47 -25 -174 -92q-215 -240 -530 -819q289 -459 459 -676l211 -61 q141 -57 141 -139q0 -59 -53 -60q-59 0 -133 109q-444 176 -920 192v-4q-182 -14 -545 -47q-238 -27 -532 -186q-66 -100 -131 -101q-53 0 -54 58q0 76 68 110l131 41q66 31 203 88q104 324 104 705q0 362 -92 708q-113 29 -375 109q-102 33 -102 127zM709 768 q0 -315 88 -621q98 16 200 27q154 162 465 506q-332 479 -518 694q-76 8 -153 21q-82 -322 -82 -627zM1315 1362q76 -182 252 -541q244 379 243 506q0 63 -47 92q-215 -49 -448 -57zM1317 182q209 -6 420 -45q-63 162 -224 457q-190 -232 -196 -412z" />
<glyph unicode=":" horiz-adv-x="442" d="M53 150l162 81l174 -168l-162 -81zM53 694l162 82l174 -168l-162 -82z" />
<glyph unicode=";" horiz-adv-x="380" d="M2 86l172 86q70 -12 118 -57t52 -113l-221 -233l-47 47l121 164q-19 71 -195 106zM25 694l163 82l174 -168l-161 -82z" />
<glyph unicode="&#x3c;" horiz-adv-x="11554" />
<glyph unicode="=" horiz-adv-x="3135" d="M-16 1688q0 57 51 57q63 0 131 -103q649 -213 1347 -212q821 0 1424 280q72 109 135 109q53 0 53 -58q0 -74 -67 -108q-55 -29 -174 -68t-174 -65q-94 -352 -95 -779q0 -438 101 -780q174 -41 241 -67q168 -63 168 -152q0 -57 -53 -57q-59 0 -145 122q-252 96 -664 158 q-373 55 -684 55q-707 0 -1190 -184l-10 17q-41 -27 -133 -72q-41 -63 -60 -82q-41 -43 -88 -43q-53 0 -53 57q0 76 119 135q25 12 180 68q215 229 623 729q-258 436 -625 854q-66 29 -188 33q-170 62 -170 156zM752 31q233 47 485 67q-82 219 -223 467q-139 -172 -180 -243 q-80 -139 -82 -291zM797 1401q137 -336 286 -602q225 305 226 454q0 66 -52 97q-231 14 -460 51zM1130 717q170 -285 424 -606q104 0 195 -5q100 322 100 631q0 281 -84 609l-139 -5q-158 -169 -496 -624zM2007 723q0 -319 98 -645q123 -14 244 -35q109 336 109 698 q0 336 -91 682q-131 -29 -268 -47q-92 -346 -92 -653z" />
<glyph unicode="A" horiz-adv-x="1517" d="M18 -147q0 88 142 145q102 41 215 49l272 1395q-154 43 -274 102q-186 92 -187 187q0 74 64 73q49 0 94 -69q20 -35 62 -107q254 -141 509 -141q205 0 375 82q80 113 137 112q53 0 54 -59q0 -111 -289 -188q-18 -147 -18 -297q0 -588 245 -1110q102 -29 187 -74 q119 -63 118 -133q0 -57 -51 -58q-45 0 -90 50q-33 43 -65 84q-123 68 -283 67q-172 0 -248 -96q-16 -23 -51 -70q-33 -35 -76 -35q-53 0 -53 58q0 84 78 137q45 31 157 66q29 158 29 331q0 121 -14 250h-486l-106 -561q156 -16 291 -125q33 -27 32 -65q0 -59 -53 -60 q-41 0 -86 47q-12 14 -61 80q-88 39 -187 39q-88 0 -180 -39l-63 -82q-43 -45 -86 -45q-54 1 -54 60zM590 692h454q-51 362 -198 715q-57 4 -113 16z" />
<glyph unicode="B" horiz-adv-x="1576" d="M29 1651q0 68 59 67q27 0 74 -57q20 -27 63 -80q119 -129 281 -129q82 0 278 57q10 0 76 11q100 16 191 16q184 0 295 -74q131 -88 131 -264q0 -182 -76 -270q-59 -70 -234 -137q373 -156 373 -447q0 -209 -170 -319q-145 -94 -364 -95q-74 0 -217.5 39t-217.5 39 q-156 0 -323 -80q-59 -78 -64 -82q-45 -47 -88 -47q-51 0 -51 58q0 59 43 92q51 41 340 133q111 307 111 655q0 322 -88 629q-92 12 -248 104q-174 103 -174 181zM696 778q0 -367 88 -676q104 -37 191 -36q129 0 205 92q68 86 67 219q0 178 -166 268q-129 70 -315 70h-10 l4 90q156 0 289 82q154 96 153 243q0 137 -117 213q-100 66 -245 66q-35 0 -72 -4q-72 -301 -72 -627z" />
<glyph unicode="C" horiz-adv-x="1196" d="M23 731q0 252 118 461q129 229 355 307q55 18 215 25h12q152 0 315 -142q47 100 47 152q0 23 -11 64.5t-11 64.5q0 33 19.5 68.5t50.5 35.5q37 0 66.5 -33.5t29.5 -70.5q0 -111 -80 -295q-90 -207 -105 -289q74 -178 74 -262q0 -102 -98 -102q-119 0 -119 155 q0 170 88 408q-150 139 -317 139q-59 0 -129 -41t-107 -92q-111 -150 -110 -522q0 -238 75 -440q102 -274 299 -275q115 0 250 94q4 59 43 115q-6 25 -6 45q0 37 21 70l30 14q76 -12 76 -90q0 -31 -26.5 -88t-26.5 -86q0 -55 76.5 -129t76.5 -113q0 -31 -20 -51.5t-51 -20.5 q-115 0 -150 170l-24 48q-141 -90 -301 -91q-291 0 -478 261q-167 233 -167 536z" />
<glyph unicode="D" horiz-adv-x="1689" d="M12 -141q0 109 189 164q125 37 282 43q98 319 99 698q0 352 -84 688q-127 27 -246 82q-168 78 -168 166q0 66 59 65q57 0 125 -135q169 -107 382 -107q12 0 24 1l90 2q55 4 164 18q82 14 123 15q299 0 487 -269q168 -238 168 -547q0 -354 -212 -566t-566 -212 q-51 0 -150.5 6t-150.5 6q-289 0 -404 -38q-33 -45 -65 -89q-47 -51 -92 -51q-54 1 -54 60zM739 672q0 -340 78 -611h41q276 0 434 168q152 166 152 445q0 233 -82 420q-94 217 -283 307q-98 47 -168 47q-31 0 -75 -6q-97 -385 -97 -770z" />
<glyph unicode="E" horiz-adv-x="1546" d="M33 1636q0 68 59 68q53 0 125 -135q213 -123 639 -123q401 0 559 82q31 18 113 61q39 78 94 97l31 -9q20 -23 20 -51q0 -47 -53 -86q-12 -8 -104 -59q-147 -80 -148 -211q0 -76 51 -176q121 -86 121 -133q0 -59 -59 -60q-88 0 -150 150q-51 123 -51 221q0 68 27 127 q-164 -40 -407 -40q-42 0 -87 1q-74 -279 -82 -559q23 0 73 -4t75 -4l73 2q0 82 56 186q61 115 131 133q6 0 32 2l29 -31q2 -7 2 -13q0 -26 -24 -50q-86 -86 -97 -100q-41 -55 -41 -129q0 -111 99 -265q47 -20 65 -63l-4 -29q-23 -23 -51 -22q-55 0 -117 116q-45 86 -67 177 q-31 0 -116 2t-120 2q2 -344 105 -660h122q176 0 349 -41q-25 55 -25 123q0 96 59 227q70 152 162 152l21 -2q39 -20 39 -59q0 -57 -148 -150q-45 -86 -45 -164t41 -127q31 -37 107 -78q63 -35 67 -38q37 -29 37 -68l-10 -33l-29 -12q-47 8 -80 51q-166 80 -315 109 q-121 23 -330 22q-420 0 -633 -121q-63 -90 -123 -90q-53 0 -53 58q0 125 408 202q104 319 104 699q0 342 -86 682q-141 25 -264 77q-176 76 -176 166z" />
<glyph unicode="F" horiz-adv-x="1347" d="M6 1642q0 68 57 68q55 0 123 -129q225 -100 635 -100q424 0 588 78q31 18 94 53q33 57 84 74l33 -11l16 -33q2 -61 -55 -102q-33 -18 -117 -63q-164 -90 -164 -273q0 -111 60 -235l86 -64q55 -47 55 -84q0 -61 -59 -61q-98 0 -170 184q-59 152 -60 260q0 123 64 223 q-162 -35 -399 -34q-66 0 -136 2q-80 -305 -92 -549q25 0 74 -3t74 -3h75q0 82 56 186q61 115 131 133l33 4l26 -33q2 -6 2 -12q0 -24 -24 -49q-59 -61 -97 -96q-39 -51 -38 -135q0 -111 96 -265q49 -20 65 -63l-4 -29q-20 -23 -51 -22q-53 0 -115 116q-47 90 -69 177 q-33 0 -117 2t-117 2q0 -336 115 -697q119 -33 213 -84q143 -78 143 -161q0 -63 -61 -64q-53 0 -119 135q-154 119 -403 119q-213 0 -328 -100q-14 -16 -70 -70q-35 -35 -65 -35q-53 0 -54 58q0 84 144 153q106 53 219 72q100 322 100 670q0 332 -90 678q-387 69 -387 212z " />
<glyph unicode="G" horiz-adv-x="1353" d="M16 731q0 297 164 526q184 258 471 259q207 0 373 -150q57 109 63 233q-45 121 -45 146q0 78 60 78q37 0 62.5 -40t25.5 -81q0 -106 -45 -246.5t-107 -230.5q-188 203 -385 202q-59 0 -131.5 -43t-109.5 -94q-113 -156 -113 -528q0 -270 88 -455q119 -246 367 -252 q29 0 114 51l95 58v14q0 193 -35 385q-63 4 -258 82l-109 43q-53 33 -53 100q0 59 51 60q57 0 143 -119q127 -78 250 -78q109 0 191 51q31 20 149 125q39 35 66 35q53 0 53 -57q0 -109 -164 -146l-45 -28q-41 -207 -43 -463q70 -16 164 -55l-4 -9q68 -43 67 -104 q0 -57 -53 -57q-43 0 -86 45q-4 6 -63 82q-76 23 -129 22q-53 0 -68 -29q-160 -119 -336 -118q-289 0 -471 258q-164 231 -164 528z" />
<glyph unicode="H" horiz-adv-x="1527" d="M72 635q0 106 110 192q90 72 209 99q-14 250 -86 522q-86 45 -108 61q-61 45 -62 103q0 63 53 63q16 0 50 -47q41 -57 77 -86q61 -47 144 -47q111 0 166 47q25 20 61 88q27 47 62 47q49 0 49 -55q0 -82 -113 -131q-25 -25 -53 -43q-70 -270 -84 -502h110q252 0 543 -123 q-8 313 -90 629q-53 31 -109 61q-61 45 -61 99q0 63 53 63q39 0 58 -43q27 -59 51 -80q51 -43 164 -43q109 0 170 43q27 18 69 82q29 43 60 43q49 0 49 -55q0 -63 -66 -104q-37 -23 -112 -72q-88 -346 -88 -690q0 -410 108 -760l103 -37q55 -31 55 -84q0 -57 -49 -57 q-23 0 -54 22l-32 23q-63 104 -224 104q-106 0 -153 -39q-20 -16 -49 -69q-20 -39 -60 -39q-53 0 -53 63q0 47 61 84q33 18 99 53q80 252 92 488q-100 154 -285 242q-166 80 -364 92l-2 -144q0 -59 14 -219q106 0 317 43q-199 -96 -315 -98q20 -197 94 -434l94 -35 q51 -29 52 -80q0 -57 -49 -57q-27 0 -60 39q-45 53 -74 71q-57 37 -151 37q-84 0 -146 -37q-37 -23 -77 -69q-33 -39 -52 -39q-53 0 -53 63q0 53 58 86q49 20 100 43q66 211 86 410h-9q-106 0 -192 49q-106 60 -106 164zM135 639q0 -123 248 -162q12 131 12 201l-2 160 q-94 -12 -166 -60q-92 -59 -92 -139z" />
<glyph unicode="I" horiz-adv-x="927" d="M45 -174q0 88 141 162q106 55 224 75q100 322 100 691q0 319 -86 655q-121 25 -229 80q-150 76 -150 166q0 76 66 76q55 0 110 -152q135 -96 350 -96q207 0 357 86q63 137 119 137q61 0 61 -70q0 -84 -133 -153q-96 -49 -209 -72q-86 -336 -86 -649q0 -354 108 -701 q37 -27 127.5 -62.5t128.5 -64.5q63 -47 64 -110q0 -70 -61 -70q-55 0 -121 140q-152 92 -365 92q-209 0 -344 -95q-51 -141 -106 -141q-66 0 -66 76z" />
<glyph unicode="J" horiz-adv-x="1157" d="M-109 2q0 162 125 270q119 106 283 107q195 0 266 -195q-100 117 -231 117q-117 0 -195 -45q-96 -55 -96 -164q0 -131 82 -217t213 -86q68 0 188 43q264 94 265 827q0 403 -82 752q-115 23 -236 86q-158 82 -158 170q0 76 66 76q55 0 111 -150q133 -106 350 -106 q209 0 358 98q61 133 119 133q59 0 59 -69q0 -82 -129 -152q-94 -51 -200 -78q-84 -285 -84 -649q0 -459 143 -850q-102 53 -129 53q-43 0 -100 -69q-27 -35 -84 -105q-162 -182 -451 -182q-178 0 -309 100q-144 111 -144 285z" />
<glyph unicode="K" horiz-adv-x="1640" d="M12 -176q0 82 144 164q111 63 219 88q96 317 96 678q0 334 -82 665q-86 29 -174 88q-113 76 -113 146q0 76 66 76q51 0 115 -162q92 -78 239 -78q139 0 242 67q49 90 51 97q41 61 80 61q61 0 61 -69q0 -57 -88 -127q-68 -53 -139 -84q-78 -305 -86 -609q129 -41 244 -71 q84 92 246 278q172 207 172 299q0 51 -97 96q-137 63 -147 70q-82 51 -82 127t65 76q53 0 111 -150q106 -72 270 -71q98 0 164 22v-2q82 23 142 64q18 35 56 101.5t81 66.5q61 0 61 -70q0 -78 -94 -129q-63 -86 -227 -123q-250 -227 -625 -682q150 -39 213 -39q43 0 80 10 q0 -184 82 -426q98 -293 225 -292q80 0 113 47q27 37 35 123l32 -3l2 -98q2 -98 -67.5 -174t-165.5 -76q-190 0 -338 262q-125 223 -135 437l-412 110q16 -281 96 -545q104 -29 201 -83q131 -78 131 -158q0 -70 -61 -70q-39 0 -82 66q-25 49 -51 98q-133 84 -336 84 q-246 0 -371 -141q-51 -111 -96 -111q-66 0 -66 76z" />
<glyph unicode="L" horiz-adv-x="1404" d="M10 -182q0 80 146 135q29 10 213 55q104 324 104 729q0 324 -86 660l-172 86q-39 18 -119 57q-61 41 -61 109q0 70 61 69q53 0 113 -123q70 -53 170 -94q113 -47 188 -47q178 0 336 141q51 129 103 129q66 0 65 -75q0 -72 -137 -160q-109 -70 -205 -100 q-86 -338 -86 -629q0 -360 100 -694l91 2h31q161 0 354 -37q-195 195 -195 450q0 365 270 533q123 76 183 76q129 0 129 -93q0 -88 -150 -106q-4 0 -211 -17q-133 -131 -133 -395q0 -147 84 -278q80 -123 213 -203q84 -29 147 -55q84 -37 84 -111l-16 -35l-31 -10 q-49 12 -80 63q-365 129 -677 130q-319 0 -629 -115q-96 -111 -135 -111q-62 1 -62 64z" />
<glyph unicode="M" horiz-adv-x="1994" d="M41 -215q0 68 61 113q25 12 115 59q57 31 211 109q-274 641 -274 1046q0 238 104 397q123 186 350 187q338 0 447 -314q109 313 450 314q229 0 353 -191q106 -162 106 -403q0 -387 -274 -1030q59 -27 188 -76q113 -43 131 -55q63 -41 64 -123q0 -59 -58 -60 q-59 0 -127 131q-391 197 -833 197q-479 0 -836 -240q-59 -135 -117 -135q-61 0 -61 74zM268 909q0 -246 244 -813q143 49 299 70q162 143 162 649q0 264 -53 412q-80 219 -285 219q-195 0 -291 -180q-76 -144 -76 -357zM1130 801q0 -498 162 -637q158 -20 312 -66 q246 612 245 776q0 213 -73 371q-94 201 -267 201q-242 0 -325 -205q-54 -131 -54 -440z" />
<glyph unicode="N" horiz-adv-x="1746" d="M-2 1690q0 27 16.5 58.5t40.5 31.5q76 0 99 -174q150 -154 317 -154q98 0 219 64v-3l51 21l-2 4q186 76 338 76q541 0 541 -762q0 -82 -25.5 -245t-25.5 -245q0 -322 196 -399l140 -53q70 -39 69 -127q0 -57 -55 -57t-123 120q-375 195 -803 195q-453 0 -790 -223 q-59 -137 -115 -137q-59 0 -59 71q0 113 331 258q104 342 105 699q0 322 -82 659q-94 23 -170 74q-23 14 -76 55q-137 117 -137 193zM629 788q0 -344 94 -673q127 18 258 18q100 0 201 -10q223 164 223 694q0 250 -96 440q-119 233 -332 234q-123 0 -270 -70 q-78 -318 -78 -633z" />
<glyph unicode="O" horiz-adv-x="1521" d="M16 743q0 307 181 555q199 270 495 271h144q297 0 495 -271q180 -248 180 -555q0 -365 -190 -591q-203 -242 -561 -242q-354 0 -555 244q-189 227 -189 589zM319 702q0 -266 91 -448q117 -236 348 -236q442 0 442 777q0 276 -82 450q-111 236 -354 236q-250 0 -363 -277 q-82 -199 -82 -502z" />
<glyph unicode="P" horiz-adv-x="1251" d="M-229 -195q0 98 172 170q115 49 254 70q129 326 129 676q0 303 -97 627q-160 18 -319 147q-131 45 -131 152q0 55 55 55q27 0 68 -47q102 -119 159 -160q90 -63 220 -63q88 0 256 46t256 46q217 0 360 -121q150 -129 150 -342q0 -270 -191 -428q-176 -147 -453 -148 q-80 0 -147 9q29 -246 115 -471q371 -82 370 -224q0 -55 -57 -55t-129 125q-186 96 -444 96q-252 0 -416 -96q-63 -135 -119 -135q-61 -1 -61 71zM496 748q0 -80 6 -162q76 -12 133 -13q387 0 387 455q0 162 -76 264q-86 117 -241 117q-53 0 -109 -12q-100 -317 -100 -649z " />
<glyph unicode="Q" horiz-adv-x="1708" d="M72 752q0 309 186 557q201 268 490 268h143q289 0 489 -268q186 -248 187 -557q0 -240 -86 -428q-98 -213 -293 -318q23 -47 45 -112q29 -78 84 -132q66 -61 141 -61q82 0 139 70q4 106 9 290q16 102 100 103q23 0 47 -12q57 -51 57 -142q0 -82 -75 -182 q-84 -221 -269 -221q-106 0 -198 78q-82 72 -121 178q-18 51 -43 104q-131 -49 -289 -49q-354 0 -555 244q-188 228 -188 590zM375 711q0 -176 43 -326q55 -186 166 -279q31 82 95 144.5t144 73.5q12 1 24 1q132 0 253 -167q156 195 155 645q0 283 -81 454 q-111 231 -355 232q-248 0 -362 -279q-82 -200 -82 -499zM666 55q68 -31 147 -30q127 0 219 67q-95 140 -182 140q-7 0 -14 -1q-4 0 -17 -4q-104 -33 -153 -172z" />
<glyph unicode="R" horiz-adv-x="1687" d="M23 -193q0 84 151 160q111 55 225 76q100 322 101 676q0 322 -82 651q-80 14 -266 137q-66 43 -78 56q-37 37 -37 88q0 57 49 57q23 0 37 -12q156 -133 231 -183q98 -61 181 -63h6q100 0 281 56q187 58 284 59q188 0 321 -95q154 -104 154 -284q0 -184 -166 -307 q-135 -100 -338 -138q291 -117 320 -413q10 -106 22 -187q25 -72 115 -71q84 0 131 137q37 106 37 223l31 2q25 -125 24 -219q0 -156 -63 -246q-72 -106 -221 -106q-299 0 -299 440q0 217 -150 317q-113 76 -352 105q2 -369 106 -703q326 -88 326 -231q0 -53 -57 -53 q-41 0 -84 55q-8 12 -58 88q-150 86 -354 86q-219 0 -352 -100q-61 -127 -117 -127q-59 -1 -59 69zM672 815q37 -6 127 -6q217 0 356 80q172 100 172 303q0 242 -287 242q-121 0 -288 -37q-72 -285 -80 -582z" />
<glyph unicode="S" horiz-adv-x="1304" d="M-41 -401l2 18q35 53 168 84q94 86 155.5 213t61.5 250q0 115 -65 215q-41 18 -122 60t-81 93q0 31 30.5 50.5t63.5 19.5q100 0 188 -192q72 -158 73 -267q0 -11 -1 -22q160 -92 297 -92q106 0 203 67q106 74 106 176q0 16 -4 31q-16 98 -116 170q-141 90 -416 281 q-248 182 -248 401q0 104 59 188q35 49 138 144l8 -8q109 53 229 53q162 0 395 -113q37 121 103 232q90 154 168 153q63 0 63 -39t-63 -86q-25 -16 -84 -63q-51 -45 -90 -184q-37 -127 -37 -211q0 -68 18 -117q156 -104 156 -168q0 -63 -88 -64q-76 0 -131 138 q-45 111 -45 194q0 43 10 125l-180 78q-100 37 -191 37q-240 0 -239 -191q0 -133 247 -303q33 -23 146 -96q236 -156 278 -195q123 -117 124 -268q0 -7 -1 -14q-8 -178 -172 -311q-158 -125 -340 -125q-145 0 -321 88q-43 -141 -142 -297q-125 -197 -227 -197q-86 1 -86 64z " />
<glyph unicode="T" horiz-adv-x="1570" d="M6 1657q0 51 53 51q70 0 162 -162q174 -94 649 -94q446 0 639 107q88 158 160 157q51 0 51 -53q0 -45 -49 -90q-27 -25 -80 -57q-160 -266 -159 -463q0 -37 4 -72q43 -43 127 -133q88 -98 88 -148q0 -29 -20.5 -57.5t-47.5 -28.5q-121 0 -188 172q-51 129 -52 267 q0 186 97 381q-156 -53 -404 -66q-84 -334 -84 -645q0 -334 109 -680l194 -61q115 -53 115 -146q0 -55 -55 -55q-57 0 -127 121q-150 86 -354 86q-219 0 -355 -101q-55 -119 -110 -118q-59 0 -60 69q0 88 148 158q104 49 223 70q102 322 102 649q0 319 -84 653 q-258 14 -413 59q51 -129 51 -278q0 -178 -41 -320q-61 -215 -201 -215q-27 0 -47 29t-20 57q0 55 69 125l111 105q43 111 43 227q0 176 -105 346q-139 86 -139 154z" />
<glyph unicode="U" horiz-adv-x="1855" d="M2 1604q0 55 57 55q55 0 123 -113q401 -205 865 -205q463 0 813 213q74 150 127 150q59 0 59 -70q0 -33 -14 -61l4 -6q-147 -94 -160 -103q-94 -57 -164 -88q-111 -344 -110 -700q0 -326 86 -664q190 -43 360 -233l-2 -2q31 -41 31 -84q0 -27 -16.5 -57.5t-41.5 -30.5 q-55 0 -82 69q-8 20 -22 117q-154 139 -320 139q-106 0 -231 -61v2l-55 -23v-4q-199 -78 -361 -77q-266 0 -418 184q-141 170 -141 442q0 39 2 115t2 115q0 68 24.5 199.5t24.5 199.5q0 362 -221 399v4q-117 39 -143 54q-76 43 -76 125zM608 565q0 -250 105 -442 q127 -233 350 -234q127 0 285 70q82 319 82 635q0 346 -101 678q-133 -18 -272 -19q-104 0 -211 11q-129 -90 -191 -318q-47 -172 -47 -381z" />
<glyph unicode="V" horiz-adv-x="1486" d="M29 1501q0 53 55 53q43 0 88 -57q31 -49 61 -96q94 -53 213 -53q240 0 365 176h2q39 49 70 49q61 0 61 -70q0 -98 -252 -196l-37 -15q-86 -336 -86 -776q0 -82 4 -315l293 -291q256 125 404 420q131 268 131 575q0 586 -230 733q-152 14 -172 21q-119 29 -118 102 q0 94 151 94q254 0 395 -325q109 -250 109 -539q0 -418 -195 -745q-215 -356 -591 -475l-369 338q10 358 10 456q0 385 -84 715q-94 27 -172 76q-106 67 -106 145z" />
<glyph unicode="W" horiz-adv-x="2140" d="M160 1649q0 57 57 57t127 -129q391 -199 834 -199q477 0 835 240q59 135 117 135q59 0 59 -74q0 -90 -153 -176q-51 -29 -232 -102q274 -641 275 -1047q0 -238 -105 -397q-123 -186 -350 -186q-338 0 -448 311q-106 -311 -449 -311q-225 0 -350 184q-106 160 -107 397 q0 248 84 537q59 201 189 506q-53 20 -191 75l-98 39q-23 10 -31 15q-63 41 -63 125zM383 590q0 -211 74 -369q94 -201 266 -201q242 0 324 203q55 135 55 441q0 498 -162 636q-158 20 -311 66q-246 -614 -246 -776zM1260 649q0 -270 51 -411q80 -217 286 -218 q195 0 291 181q76 141 76 354q0 248 -244 813q-143 -47 -299 -68q-161 -143 -161 -651z" />
<glyph unicode="X" horiz-adv-x="1593" d="M-18 1642q0 57 53 58q66 0 137 -111q373 -174 762 -174q199 0 440 68q272 76 406 194q72 123 129 123q55 0 55 -55q0 -74 -49 -109q-55 -25 -109 -51q-80 -49 -247 -137q-199 -215 -535 -727q281 -434 492 -703q66 -20 126 -45l-2 2q125 -49 215 -88q104 -47 105 -139 q0 -55 -57 -55q-55 0 -121 110q-150 76 -355 134q-256 72 -469 71q-444 0 -798 -231q-57 -98 -113 -99q-57 0 -57 56q0 86 73 129q72 29 142 57q39 20 114 57q240 254 555 689q-371 532 -585 778q-92 33 -187 65q-120 55 -120 133zM696 78q125 18 252 18q115 0 230 -14 q-70 178 -256 506q-230 -287 -226 -510zM715 1339q78 -184 262 -538q211 287 211 430q0 59 -68 104q-86 -10 -176 -10q-114 0 -229 14z" />
<glyph unicode="Y" horiz-adv-x="1290" d="M-18 1657q0 55 57 55q45 0 92 -67l-14 2q49 -51 141 -94.5t160 -43.5q139 0 244 76q66 135 118 135q61 0 62 -69q0 -100 -201 -189q20 -133 125 -313q141 -246 164 -299q43 78 125 235q76 154 75 246q0 63 -38 105q-78 27 -144 80q-82 66 -82 131q0 76 66 75q39 0 78 -71 q23 -53 45 -105q86 -51 194 -51q178 0 320 152q70 74 86 73q61 0 61 -69q0 -70 -67 -113q-20 -12 -131 -55q-219 -84 -297 -242q-117 -233 -256 -520q0 -360 108 -703q330 -86 330 -221q0 -55 -57 -55q-55 0 -127 125q-154 96 -373 96q-227 0 -363 -106q-59 -123 -112 -123 q-61 0 -62 69q0 84 156 160q117 57 227 78q100 315 101 676v14q-53 145 -226 363q-238 297 -268 344q-23 10 -117 47q-51 20 -133 51q-67 39 -67 121z" />
<glyph unicode="Z" horiz-adv-x="1566" d="M43 -193q0 76 158 146q530 700 815 1431q-72 -4 -148 -4q-346 0 -567 72q66 -117 66 -379q0 -182 -43 -325q-63 -213 -205 -213q-29 0 -48.5 27.5t-19.5 58.5q0 47 64 110q86 86 118 141q66 111 66 263q0 111 -57 227q-39 78 -105 164q-57 76 -57 86q0 31 22 51 q23 6 29 6q57 0 86 -88q219 -115 643 -115q444 0 656 127q35 66 92 82l32 -10l15 -33q-2 -106 -244 -180q-612 -739 -856 -1403q135 16 289 17q317 0 538 -64q-98 156 -98 332q0 152 88 371q104 260 225 260q68 0 68 -78q0 -55 -76 -131q-111 -111 -141 -158 q-76 -115 -76 -266q0 -207 162 -379q84 -31 82 -113l-14 -33l-31 -10q-57 16 -88 74q-188 106 -572 106q-461 0 -731 -139q-31 -86 -88 -86q-6 0 -29 4q-20 22 -20 51z" />
<glyph unicode="[" horiz-adv-x="4028" d="M4 649v127l6 15q-6 14 -6 40q0 16 5 49t5 50l-2 8l-6 6q6 61 6 139q0 76 -6 179q23 43 90 43q18 0 37 -11q61 12 74 13l18 -9q16 8 41 9q18 0 39 -19q0 -10 4 -31.5t4 -31.5l-10 -35q10 -25 10 -82l-2 -154v-32q-2 -8 -6 -4l-4 -7v-4l8 -10v-10q4 -12 -4 -27l4 -14 q25 0 43 -2q12 6 35 6l6 -6q16 6 27 6q6 0 10 -2l14 8q53 -12 54 -86q0 -6 -11 -25l7 -18l-5 -12q8 -14 9 -41q0 -14 -2 -58q-23 -23 -107 -22h-10l-6 8q-43 -4 -68 -4l-10 4q-14 -2 -43 -8q0 6 6 8q-10 0 -10 10v-20q-88 0 -137 10q-16 -10 -62 -10l-20 6l-19 29 q-4 8 -6 22zM59 836q0 -150 4 -179l5 -4q29 6 45 9q20 -8 45 -9q55 0 69 9l25 -9q33 8 55 11l12 -9q37 4 62 7l8 -5q27 10 33 11q6 0 20 -4l-6 28q-6 20 -6 33q0 8 4 23.5t4 23.5l-2 12h-18l-4 -4q-29 0 -45 11q-53 -4 -86 2l-2 -7l-25 -4l-14 13q10 70 8 86l-6 8l-4 20 q0 18 8 56.5t8 56.5q-4 12 -10 25q2 16 2 24l-4 6q0 10 6 30.5t6 29.5q0 16 -16 32q0 8 6 24.5t6 20.5v31h-2q-14 0 -41 3t-41 3q-2 0 -12.5 -6t-14.5 -6q-4 2 -12 2l-27 4q-14 2 -30 0l-4 -6v-55l10 -15v-16q0 -31 -6 -89t-6 -89l8 -29q0 -18 -7.5 -55t-7.5 -55zM553 948 q14 16 14 37q0 86 37 145l10 5q16 63 88 86q10 33 99 63q80 29 125 29q121 0 159 -37q72 -14 119 -68l8 -4q10 -12 27 -24l8 -27l23 -12q39 -78 43 -109l-6 -6q2 -10 9 -41t7 -47q0 -70 -27 -96q0 -39 -22.5 -79t-56.5 -50q-12 -27 -58.5 -61t-75.5 -34l-8 3 q-41 -31 -125 -31q-53 0 -80 10q-47 0 -133 35l-12 18q-33 10 -66 41q-6 8 -51 64l2 16q-16 25 -41 74l2 14q-14 55 -18 86zM614 926q0 -70 44 -133.5t110 -92.5q20 -49 205 -49q45 0 190 78q6 14 47 55q29 29 29 68v8q12 18 23 31q0 10 4 32.5t4 32.5q0 68 -43 146l-17 8 q-39 68 -117.5 105.5t-160.5 37.5q-61 0 -164 -43q-18 -41 -59 -51q-14 -23 -37 -37q-4 -29 -31 -95t-27 -101zM805 954q0 6 5 20.5t5 22.5q0 16 -6 25q4 33 31.5 61.5t60.5 34.5l4 6q16 8 29 9q18 0 44 -16.5t32 -33.5l20 -8q18 -25 31 -39q0 -86 10 -116q-35 -88 -47 -103 q-33 -45 -109 -45q-41 23 -61 31q-25 31 -37 39q0 18 -6 56t-6 56zM848 1026q4 6 8 6t8 -4v-6q-2 -16 -2 -55q2 -12 -2 -21q2 -4 4 -14q8 -39 10 -62l21 -30q45 -10 31 -11v-20q-20 0 -21 12q0 6 15 10q8 2 26 5q18 16 41 69q16 41 31 37q8 -2 8 -12h-20l-2 4v72 q-6 18 -33 39.5t-45 23.5l-37 -18q-8 -25 -27 -31zM1004 1819q0 123 55 213q66 109 180 108q125 0 166 -166l33 -243q14 -10 47 -17q63 469 170 469l28 -20q-37 -80 -86 -234q-18 -94 -18 -162q0 -43 4 -67l33 6l22 -27l-18 -34l-25 -11q18 -61 54 -180q-12 -27 -50 -59.5 t-63 -32.5q-68 0 -68 272l-38 11q-47 -287 -148 -287q-88 0 -88 49q61 156 104 270q-106 68 -106 107q0 47 51 59q18 -6 64 -43q8 254 -97 254q-68 0 -106 -78q-29 -61 -29 -137q0 -37 19 -80q23 -51 53 -51q6 0 23.5 6t25.5 6q35 0 35 -51q0 -61 -76 -61q-151 0 -151 211z M1047 215q0 70 40.5 121t108.5 51q10 0 21 -2q-4 78 -5 111q0 174 74 174q53 0 53 -43q0 -70 -3 -209t-3 -209q0 -76 8 -80l29 25l16 6l17 -17q0 -35 -25.5 -66.5t-58.5 -31.5q-18 0 -59 25q-57 -29 -91 -29q-122 0 -122 174zM1157 231q0 -123 55 -122q12 0 11 8l-2 205 q0 14 -9 14q-55 -1 -55 -105zM1382 1147q0 82 2 102q16 57 80 58l43 -11l15 11h22q39 0 60 -11q18 8 30 13q61 0 62 -64q0 -23 -8 -41q6 -49 6 -76l20 -4q6 0 25 4q2 29 8 78l-6 19q8 51 18 63q14 25 60 25l14 -8q18 4 39 4q23 0 47 -4l14 6l23 -6q12 4 26 4q25 0 52 -13 q14 -20 14 -43q0 -16 -5 -46.5t-5 -47.5l6 -12q4 -129 -8 -166q12 -35 12 -66q0 -131 -16 -159q16 -45 16 -103q0 -49 -72 -55q-14 -4 -102 -4q-16 0 -37 10l-18 -6q-76 2 -90 64v114q0 43 2 78l-11 8q-8 -2 -28 -6q-6 -33 -6 -49q0 -8 4 -23.5t4 -23.5q0 -35 -8 -53l10 -58 q0 -57 -47 -57q-16 0 -35 4q-18 -6 -43 -6q-8 0 -39 12q-31 -12 -72 -12q-23 0 -51 6q-23 41 -23 57q0 29 7.5 87.5t7.5 86.5q0 41 -3 124t-3 124q0 12 -6.5 36t-6.5 36zM1384 209q0 76 46.5 129t119.5 53q125 0 125 -141q0 -86 -65 -86q-51 0 -94 45q6 -98 67 -98 q49 0 107 88q8 0 10 -4v12q20 0 20 -33q0 -55 -60.5 -95t-117.5 -40q-158 0 -158 170zM1440 1239q0 -29 12 -47l-8 -49l2 -4q2 -168 14 -189q-8 -33 -6 -59q4 -43 8 -60q0 -29 -7 -85t-7 -84l6 -13l12 -2h156l12 4v13q0 10 -2 28.5t-2 28.5q10 20 10 29q0 12 -5 34.5 t-5 34.5h2q0 2 -2 4q2 6 15 78q63 16 98 19l18 -11l21 4l10 -24q-6 -18 -2 -62.5t-4 -64.5q6 -68 4 -103l2 -2q31 4 49 7q16 -8 31 -9q10 0 30.5 3.5t30.5 3.5l9 -7q12 4 24 4t25 -4l2 2q-14 55 -15 109q0 12 8.5 35.5t8.5 34.5q0 25 -8.5 75t-8.5 74q2 8 15 33 q0 12 -6.5 38.5t-6.5 39.5l9 12q0 72 4 111l-2 30l-17 2l-10 -6q-35 2 -55 0l-11 8q-29 2 -77 -8l-13 8l-4 -2q-10 -82 -10 -147l8 -31q-12 0 -38.5 -4t-39.5 -4q-12 0 -43 8q-6 -8 -26 -14l-15 18q6 96 -12 119q6 33 10 51l-24 -12l-23 2l-12 14h-57l-78 -2l-2 -2z M1516 270q4 2 10 2q10 0 25.5 -12t17.5 -12q8 0 8 43q0 45 -27 45q-24 0 -34 -66zM1638 1528q0 68 41 130t107 62q137 0 137 -51v-166q0 -25 -2 -26l27 55l24 -12q2 -6 8 -15q0 -45 -28.5 -88t-71.5 -43q-37 0 -53 21q-25 -25 -64 -25q-125 0 -125 158zM1704 121q0 53 72 53 q-8 -31 -9 -45q0 -31 25 -31t25 45q0 59 -31 64q-8 -10 -31 -33q-31 8 -31 33q18 37 43 84q23 109 43 108h21q4 -29 14 -63l49 -76q12 -27 17 -53l6 12q31 0 31 -20q0 -57 -46.5 -109.5t-103.5 -52.5q-35 0 -64.5 24.5t-29.5 59.5zM1753 1530q0 -90 37 -90q25 0 25 10v195 q0 27 -7 26q-55 0 -55 -141zM1931 279q0 104 84 104q45 0 45 -86q0 -20 -3 -58t-3 -59q0 -39 2 -41q16 0 29 27q12 16 22 41q25 0 25 -25q0 -51 -34 -93t-83 -42q-78 0 -78 146q0 14 -3 43t-3 43zM1946 446q0 78 61 78q47 0 47 -59q0 -78 -63 -78q-45 0 -45 59zM1962 1642 q0 82 74 82q35 0 39 -53q33 53 65 53q55 0 55 -67q0 -27 -17 -64t-46 -37q-14 0 -33 33q-8 -61 -18 -125q-14 -82 -62 -82q-23 0 -34 15q-2 -39 -5 -43q-6 0 -10 104v92q0 16 -4 46t-4 46zM2105 1249q20 37 27 41q14 14 47 15q27 0 51 -9q23 10 60 11l26 -11l25 11 q29 0 51 -27h8q31 -41 35 -63l14 -9q25 -37 31 -55q14 -4 27 -14q-2 20 -2 35q0 18 4 30l-10 13q0 61 11 78.5t66 17.5q45 0 66 -10q10 4 27 8l8 -6q18 10 55 10q16 0 37 -25q4 -53 0 -121l-4 -4l8 -16q0 -51 -14 -105l8 -14q-2 -129 -10 -164l10 -57l-10 -78q10 -57 10 -94 q-25 -37 -78 -37q-14 0 -33 8q-47 -10 -71 -10q-18 0 -45 35q-23 29 -31 53q-45 27 -64 70q-18 16 -45 43q-6 -49 -6 -76l14 -33q-14 -53 -12 -84q-33 -12 -51 -12q-8 0 -14 2q-8 -4 -19 -4q-12 0 -24 8l-23 -8h-98q-53 6 -53 76q0 27 10 53q-10 27 -10 55q0 35 14 78 l-14 27q0 82 10 108l-8 15q10 25 10 110q0 37 -6 62l4 6v20q-15 14 -19 47zM2120 199q0 190 147 190q12 0 43 -16q41 14 70 14q35 0 35 -106v-31v-25q-2 -14 -2 -18v-41q14 31 14 67q43 -10 43 -36q0 -25 -33 -101l-63 -145q-55 -98 -129 -98q-41 0 -72 32.5t-31 73.5 q0 74 45 74q10 -8 21 -13l12 -67q6 -39 39 -39q43 0 43 125q0 10 -2 27v4q-31 -25 -62 -25q-118 0 -118 154zM2173 1239q14 -23 14 -139q-6 -43 -6 -72q0 -27 6 -43l-8 -22q0 -18 5 -56.5t5 -56.5q0 -27 -7 -81t-7 -83v-22l4 -7q16 -2 33 -2v-20h-6q-10 0 -15 8q-8 16 86 16 h60q4 16 6 31l-10 23q2 16 8 30q-2 10 -2 25q0 27 8 66l-14 4q8 31 24 49h17l18 -17q33 -4 103.5 -76.5t76.5 -105.5q27 -25 64 -47h-39q-6 0 2 10q-10 8 -4 11q8 2 57 2h47l4 4v8q0 8 -6 76l10 26q0 55 -10 82q16 63 17 281v4h20q0 -31 -6 -31q-8 0 -16 33q-2 8 -7 31 l11 32l-2 43h-2l-29 -12q-31 12 -119 12h-2v-20q8 -16 8 -53q0 -51 -10 -93q10 -20 10 -34l-4 -11l-8 -8l-27 4l-18 17l-2 8q-47 16 -96 82l-39 51q4 41 -29 47q-16 -8 -39 -8q-16 14 -27 12h-10q-10 -12 -33 -12q-10 0 -29.5 5t-27.5 5l-8 -4v-2zM2183 1550q0 174 148 174 q121 0 139 -137q14 8 24 8q14 0 31 -10q0 -39 -57 -80q-29 -131 -152 -131q-66 0 -102 58q-31 48 -31 118zM2230 199q0 -88 37 -88q27 0 27 39v126q0 49 -25 50q-39 0 -39 -127zM2304 1552q0 -123 33 -122q23 0 22 88q0 156 -37 155q-18 0 -18 -121zM2460 223v47 q0 121 65 121q53 0 53 -39v-6q35 53 72 53q86 0 86 -112q0 -20 -2 -59.5t-2 -59.5v-16q12 10 33 22q14 -20 18 -37q-39 -96 -110 -96q-53 0 -56 100q0 6 4 119q0 23 -6 33l-32 -143q-29 -102 -74 -103q-49 0 -49 176zM2515 1645q0 299 20 356q12 37 66 37q20 0 39 -13 q6 -18 6 -30q0 -78 -8 -233.5t-8 -233.5q0 -66 18 -66q4 2 23 47q23 -29 22 -47q0 -33 -28.5 -62.5t-61.5 -29.5q-88 1 -88 275zM2689 1550q0 70 41 120t109 50h20q-4 78 -4 111q0 174 70 174q57 0 57 -43q0 -70 -4 -209t-4 -209q0 -74 10 -80l2 2q6 6 27 23l18 4l10 -16 q0 -35 -23.5 -67t-56.5 -32q-18 0 -59 27q-57 -29 -90 -29q-123 0 -123 174zM2765 121q0 53 74 53q-8 -31 -9 -45q0 -31 25 -31q23 0 22 45q0 59 -28 64l-33 -33q-31 8 -31 33q12 37 39 110q31 82 49 82h21q4 -29 14 -63q51 -82 62 -131l10 14q29 0 29 -20 q0 -57 -45.5 -109.5t-102.5 -52.5q-37 0 -66.5 23.5t-29.5 60.5zM2798 1567q0 -123 57 -123q12 0 10 8l-2 203q-2 14 -8 16q-57 0 -57 -104zM2826 666q0 27 8 47q-6 23 -6 47q0 31 13 57q-6 27 -7 133q0 117 11 144q-8 29 -9 51q0 25 9 43q-6 16 -6 45q0 23 4 55 q31 20 47 21q23 0 45 -15l16 11q184 -12 227 -13q10 0 30 7.5t30 7.5q55 0 55 -41q0 -18 -10 -31q6 -16 6 -31q0 -16 -6 -37q6 -20 6 -34q0 -51 -96 -52q-76 0 -80 4l6 9q-6 4 -6 6t1 3t3 1h4q4 0 23 2v-21q-20 0 -27 -14l2 -6l29 -6q12 0 45 5t51 3h8l27 -18q2 -18 2 -43 l-8 -15q8 -27 8 -45q0 -59 -100 -59q-47 6 -58 2v-15l-8 -12l8 -20h107q74 0 73 -49q0 -23 -10 -39q8 -18 8 -35q0 -16 -10 -33q4 -16 4 -33q0 -59 -80 -53l-6 4q-51 -6 -90 -6q-168 0 -246 -6l-24 14q-8 25 -21 53v7h-2zM2884 670l8 -17q8 0 24.5 4.5t24.5 4.5 q244 0 297 -9q-2 25 -4 41l10 17v16q-10 12 -10 27q0 12 6 24l2 4q-10 4 -92 2q-57 0 -86 27l4 16q-10 18 -10 37v13q14 14 16 34l-8 21l20 16q-6 2 70 2q10 -2 20 -8q16 8 35 8l8 -4h3q-6 59 -7 49l4 15q-8 0 -14 2h-20q-6 0 -19.5 -4t-19.5 -4t-28.5 5t-29.5 3h-20l-12 16 l8 23q-6 10 -6 24q0 8 6 19l-2 24l10 8q0 8 16 13l146 6v6q0 8 -6 20q8 18 8 39q-2 6 -10 29l2 8q-18 -12 -56 -12q-8 0 -23.5 5t-23.5 5q-18 0 -53 -4t-53 -4l-21 8q-12 2 -18 2q-4 0 -16.5 -5t-18.5 -5h-23l-18 10h-2l-4 -4q0 -10 5 -28.5t5 -28.5t-7 -30.5t-7 -31.5 q0 -2 6 -15t6 -19q0 -29 -7 -86.5t-7 -85.5q0 -23 6 -41l-6 -23q0 -12 8 -39l-8 -47q0 -10 3 -32.5t3 -33.5q-6 -12 -14 -32zM3359 811q0 20 14 51q-6 23 -6 56q0 43 8 110l-10 19q10 74 12 108q-14 16 -14 55q0 94 57 95q12 -6 23 -11q16 12 32 13q84 0 109 -11 q27 12 111 11l8 -9q10 0 30.5 4.5t30.5 4.5q66 0 92 -33q31 2 82 -41l2 -19q66 -63 66 -96l-2 -14q18 -29 18 -64q0 -70 -26 -92q6 -63 -52 -90l-6 -12l-20 -4q6 -4 12 -4q23 20 39 20q18 0 45 -10l10 -23q0 -47 -6 -67q4 -16 4 -31q0 -27 -16 -45l16 -37q0 -55 -104 -55 q-25 0 -43 10q-25 -10 -35 -10q-45 0 -174 104l-2 -16q2 -8 4 -31q8 -55 -47 -55q-35 0 -55 10q-16 -8 -39 -8q-20 0 -43 8q-25 -8 -56 -8q-20 0 -43 10l-20 31v14q0 18 4 121zM3418 815q0 -12 6 -33.5t6 -31.5q0 -16 -4 -46t-4 -47q0 -10 15 -10q12 0 38 21h21 q16 -16 37 -17q6 0 19.5 5.5t21.5 5.5l26 -11h15l2 2v4q-10 27 -4 45q10 29 10 35v17l12 12l4 12l17 8l12 -14l-2 -16q27 -10 53 -31q45 -33 55 -35q16 -35 70 -43q16 12 35 12q10 0 27.5 -8t27.5 -8q12 0 27 4l-17 29l25 121l8 2q-16 -14 -35 -25q-76 25 -112 43l-13 12v23 l48 35q59 2 77 49q-2 8 -2 18q0 12 25 43q2 37 2 58l-23 22l-2 21q0 12 7 24q-12 31 -50 54q-8 27 -24 34q-8 2 -37 7l-14 2q-20 33 -144 32q-14 0 -40.5 -7t-41.5 -7q-16 0 -48 5t-48 5q-10 0 -31.5 -6t-33.5 -6l-11 2l-6 -6q6 -10 23 -80q-20 -29 -21 -59q0 -43 17 -54 q0 -14 -9.5 -36.5t-9.5 -28.5l14 -127q-16 -19 -16 -31zM3607 997q0 4 12 54q-12 16 -12 36q0 8 8 19l-4 8l12 19h16l4 -3q20 16 47 17q53 0 62 -31q23 -12 22 -37v-8l3 -6q0 -10 4 -31.5t4 -32.5q-8 -35 -17 -88q-45 -68 -88 -67q-8 4 -10 6q-18 -10 -35 -12l-18 4l-4 20 l8 19q-2 20 -2 26t2 13v16q0 8 -7 28.5t-7 30.5zM3664 983q2 -14 14 -74l4 -2q33 8 33 43v23q0 -4 10 24q-6 10 -6 29q0 61 -26 64l-27 -11l8 -8v-12q0 -12 -5 -38t-5 -38z" />
<glyph unicode="\" horiz-adv-x="5314" d="M51 670h66l41 -324l49 324h82l49 -320l43 320h63l-73 -377h-72l-51 317l-53 -317h-72zM123 1473q0 -115 76.5 -193t191.5 -78q113 0 190.5 78t77.5 190q0 115 -76.5 192t-191.5 77q-113 0 -190.5 -76.5t-77.5 -189.5zM147 1473q0 102 72 172.5t174 70.5t172 -70.5 t70 -175.5q0 -102 -70.5 -172.5t-173.5 -70.5q-102 0 -173 71t-71 175zM217 1470q0 -78 51 -127t129 -49q84 0 142 68l-41 37q-45 -49 -101 -49q-51 0 -86 34.5t-35 85.5q0 53 34 89t87 36q51 0 101 -51l41 39q-61 68 -144 68q-78 0 -128 -51.5t-50 -129.5zM444 670h66 l41 -324l49 324h82l49 -320l43 320h64l-74 -377h-72l-51 317l-53 -317h-72zM516 -86h66v-227h120v227h68v-535h-68v250h-120v-250h-66v535zM731 1204v64l111 186q31 55 39 76q14 35 14 80q0 74 -49 73q-47 0 -47 -75v-62h-62v68q0 131 107 131q115 0 114 -139 q0 -78 -51 -160l-108 -184h166v-58h-234zM838 670h67l39 -324l49 324h82l49 -320l45 320h62l-74 -377h-72l-51 317l-53 -317h-72zM846 -86h65v-475h158v-60h-223v535zM1010 1473q0 -172 8 -205q20 -70 115 -70q102 0 114 102q4 33 4 173q0 176 -14 206q-27 66 -107 66 q-86 0 -108 -68q-12 -31 -12 -102q0 56 0 -102zM1075 1331v111v168q2 76 55 76q37 0 46 -31q8 -20 8 -96v-91q0 -98 -2 -133q0 -78 -54 -78q-51 0 -53 74zM1102 -440q0 -115 14 -144q25 -43 92 -43q82 0 99 68q8 33 8 123q0 125 -12 151q-25 49 -93 49q-84 0 -100 -67 q-8 -31 -8 -137zM1165 -399q0 66 6 86q8 29 39 28q39 0 41 -55v-94q0 -90 -4 -113q-8 -33 -41 -33q-39 0 -41 70v111zM1264 293v88h63v-88h-63zM1292 1473q0 -172 11 -205q18 -70 112 -70q102 0 115 102q4 33 4 173q0 176 -12 206q-27 66 -109 66q-86 0 -108 -68 q-12 -31 -13 -102q0 56 0 -102zM1358 1442l2 168q2 76 53 76q37 0 47 -31q6 -20 6 -96v-91v-133q-2 -78 -55 -78q-49 0 -51 74q-2 33 -2 111zM1374 -86h60v-190q33 41 75 40q82 0 82 -124v-261h-59v228q0 63 -6 82q-8 29 -41 28q-35 0 -45 -32q-6 -18 -6 -78v-228h-60v535z M1391 293v532h59v-190q33 41 76 41q82 0 82 -123v-260h-60v225q0 63 -6 82q-8 29 -41 29q-35 0 -45 -33q-6 -18 -6 -78v-225h-59zM1581 1204v64l111 186q31 55 39 76q14 35 14 80q0 74 -49 73q-49 0 -49 -75v-62h-60v68q0 131 107 131q113 0 112 -139q0 -78 -49 -160 l-110 -184h168v-58h-234zM1657 -242h57v-34q35 41 82 40q51 0 68 -40q10 -23 10 -78v-267h-62v248q0 45 -2 58q-8 33 -41 32q-51 0 -51 -94v-244h-61v379zM1657 383q0 -98 84 -98q51 0 78 53v-45h73q-18 14 -18 80v180q0 72 -24.5 97.5t-75.5 25.5q-80 0 -99 -55 q-8 -23 -6 -74h55q-2 16 -2 26q0 55 47 56q45 0 46 -68q-25 -23 -34 -30t-61 -42q-63 -43 -63 -106zM1716 385q0 45 49 82q33 27 50 41v-94q0 -84 -58 -84q-41 0 -41 55zM1935 -391q0 -152 11 -178q23 -57 96 -58q78 0 98 60q8 18 8 63h-57q0 -74 -47 -74q-41 0 -47 54v82 h151q0 102 -4 123q-12 84 -104 83q-68 0 -90 -49q-15 -32 -15 -106zM1942 293v377h57v-72q37 82 102 78v-64q-66 0 -86 -39q-12 -25 -12 -100v-180h-61zM1997 -393q0 66 4 80q10 31 43 30q47 0 47 -65v-45h-94zM2048 1204v533h68v-226h120v226h66v-533h-66v248h-120v-248 h-68zM2124 471q0 -115 14 -141q25 -45 92 -45q82 0 99 67q8 33 8 125q0 125 -13 150q-25 49 -92 49q-82 0 -100 -66q-8 -33 -8 -139zM2187 401v111q0 68 6 86q8 29 39 29q39 0 41 -54v-96q0 -90 -4 -112q-8 -33 -41 -33q-39 -1 -41 69zM2208 -242h57v-71q37 80 102 77v-63 q-66 0 -86 -39q-12 -27 -12 -102v-181h-61v379zM2355 1294q0 -96 84 -96q53 0 78 51v-45h74q-16 14 -17 80v180q0 72 -25.5 98.5t-74.5 26.5q-82 0 -100 -55q-6 -23 -4 -76h55q-2 16 -2 29q0 53 45 53t45 -65q-23 -23 -37 -33q-6 -4 -57 -39q-64 -43 -64 -109zM2396 293v532 h62v-532h-62zM2415 -442q0 -125 86 -201q80 -70 204 -70q152 0 277 121l-25 29q-115 -109 -254 -109q-106 0 -175.5 60.5t-69.5 167.5q0 127 87 224t212 97q186 0 186 -180q0 -55 -29 -129q-37 -88 -84 -88h-8q-16 12 -16 28q0 37 22 134l25 112h-51l-13 -47q-27 63 -86 64 q-70 0 -116 -74q-43 -66 -43 -139q0 -123 98 -123q61 0 108 61q6 -63 64 -63q78 0 131 98q43 84 43 168q0 102 -61.5 160.5t-163.5 58.5q-147 0 -247.5 -106.5t-100.5 -253.5zM2417 1298q0 45 47 80q35 27 49 41v-94q0 -82 -55 -82q-41 0 -41 55zM2517 479q0 -96 8 -131 q16 -63 78 -63q53 0 80 47v-39h57v532h-61v-186q-27 37 -72 37q-61 0 -82 -62q-8 -31 -8 -135zM2576 451q0 129 10.5 153.5t41.5 24.5q37 0 47 -41q6 -27 6 -109q-2 -88 -8 -108q-10 -37 -45 -37q-45 0 -50 57q-2 21 -2 60zM2603 -440q0 55 27 104q31 57 80 57q61 0 61 -77 q0 -55 -27 -105q-33 -57 -82 -57q-59 0 -59 78zM2640 1204v377h59v-70q37 80 101 76v-61q-66 0 -84 -41q-12 -25 -13 -101v-180h-63zM2785 424h60q0 -53 4 -64q10 -27 41 -26q43 0 43 47q0 31 -39 65l-45 39q-53 47 -53 95q0 96 98 96q92 0 92 -117h-53q0 70 -39 70 q-41 0 -41 -43q0 -25 47 -64l43 -37q53 -45 53 -96q0 -104 -110 -104q-68 0 -90 49q-9 22 -11 90zM2822 1382q0 -115 17 -141q25 -43 90 -43q82 0 100 68q8 31 8 123q0 125 -12 151q-25 49 -94 49q-82 0 -99 -67q-10 -34 -10 -140zM2886 1423q0 68 8 91.5t39 23.5 q37 0 39 -53q2 -18 2 -96q0 -88 -6 -111q-8 -33 -39 -33q-39 0 -41 70q-2 30 -2 108zM3013 625v45h45v41q0 53 10 77q20 39 78 39q16 0 32 -4v-53q-14 6 -24 6q-37 0 -37 -69v-37h61v-45h-61v-332h-59v332h-45zM3056 -530q0 -96 84 -97q51 0 77 52v-46h74q-18 16 -18 80v183 q0 70 -24.5 96t-74.5 26q-82 0 -100 -55q-8 -23 -6 -76h55q-2 16 -2 29q0 53 47 53q45 0 45 -65q-25 -23 -34 -30t-60 -42q-63 -42 -63 -108zM3095 1204v533h61v-533h-61zM3117 -526q0 45 47 82q35 25 49 38v-92q0 -84 -57 -84q-39 1 -39 56zM3209 471q0 -115 15 -141 q25 -45 90 -45q84 0 100 67q8 33 8 125q0 125 -12 150q-25 49 -92 49q-84 0 -101 -66q-8 -33 -8 -139zM3215 1391q0 -94 11 -131q16 -61 77 -62q51 0 80 47v-41h56v533h-62v-185q-27 37 -72 37q-61 0 -79 -63q-11 -31 -11 -135zM3273 401v111q0 68 6 86q8 29 39 29 q39 0 41 -54v-96q0 -90 -4 -112q-8 -33 -41 -33q-39 -1 -41 69zM3277 1364q0 129 10 153.5t39 24.5q37 0 47 -41q8 -27 6 -108q-2 -88 -8 -111q-10 -37 -45 -37q-43 0 -47 58q-2 20 -2 61zM3334 -440q0 -115 14 -144q25 -43 93 -43q82 0 98 68q8 33 8 123q0 125 -12 151 q-25 49 -92 49q-82 0 -101 -67q-8 -31 -8 -137zM3398 -399q0 66 6 86q8 29 39 28q39 0 41 -55v-94q0 -90 -4 -113q-8 -33 -41 -33q-39 0 -41 70v111zM3482 293v377h57v-35q35 41 82 41q51 0 67 -39q10 -25 11 -80v-264h-62v246q0 45 -2 59q-10 31 -43 31q-49 0 -49 -92v-244 h-61zM3607 -86h61v-535h-61v535zM3682 1204v533h68v-473h156v-60h-224zM3731 -530h64v-91h-64v91zM3736 625v45h47v102h61v-102h55v-45h-55v-240q0 -49 35 -49q8 0 20 4v-49q-16 -6 -32 -6q-61 0 -78 37q-6 16 -6 94v209h-47zM3852 -440q0 117 17 153q20 51 96 51 q68 0 90 -43q12 -27 12 -100h-57q0 51 -2 64q-10 33 -45 32q-35 0 -43 -28q-6 -20 -6 -109q0 -74 2 -100q0 -59 47 -60q47 0 47 101h57q0 -72 -14 -101q-23 -47 -94 -47q-84 0 -99 70q-8 33 -8 117zM3938 1382q0 -115 17 -141q25 -43 90 -43q82 0 100 68q8 31 8 123 q0 125 -14 151q-23 49 -92 49q-82 0 -101 -67q-8 -34 -8 -140zM3953 424h59q0 -53 4 -64q10 -27 41 -26q43 0 43 47q0 31 -39 65l-45 39q-53 47 -53 95q0 96 98 96q92 0 92 -117h-53q0 70 -39 70q-41 0 -41 -43q0 -25 47 -64l43 -37q53 -45 54 -96q0 -104 -111 -104 q-68 0 -90 49q-8 22 -10 90zM4002 1423q0 68 7 91.5t38 23.5q39 0 41 -53q2 -18 2 -96q0 -88 -6 -111q-8 -33 -39 -33q-41 0 -41 70q-2 30 -2 108zM4121 -440q0 -115 14 -144q25 -43 90 -43q84 0 100 68q8 33 9 123q0 125 -13 151q-25 49 -92 49q-84 0 -100 -67 q-8 -31 -8 -137zM4184 -399q0 66 6 86q8 29 39 28q39 0 41 -55v-94q0 -90 -4 -113q-8 -33 -41 -33q-39 0 -41 70v111zM4213 1204v533h59v-189q33 41 76 41q80 0 80 -125v-260h-60v228q0 61 -6 81q-8 29 -39 29q-35 0 -45 -33q-6 -20 -6 -77v-228h-59zM4223 293v88h63v-88 h-63zM4344 471q0 117 16 154q20 51 96 51q68 0 91 -43q12 -27 12 -101h-57q0 51 -3 64q-10 35 -45 35t-43 -31q-6 -20 -6 -108q0 -72 2 -101q0 -57 45 -57q49 0 50 98h57q0 -72 -14 -98q-23 -49 -95 -49q-84 0 -98 69q-8 33 -8 117zM4393 -242h57v-39q33 45 80 45 q51 0 74 -45q35 45 80 45q68 0 82 -67q2 -16 2 -70v-248h-62v248q0 45 -4 60q-8 31 -43 30q-49 0 -49 -90v-248h-61v248q0 47 -4 64q-10 27 -41 26q-49 0 -50 -90v-248h-61v379zM4495 1204v377h58v-35q35 43 80 43q53 0 69 -41q10 -23 10 -78v-266h-61v246q0 47 -4 59 q-8 33 -41 33q-51 0 -51 -94v-244h-60zM4612 471q0 -115 14 -141q25 -45 91 -45q84 0 100 67q8 33 8 125q0 125 -12 150q-25 49 -94 49q-82 0 -99 -66q-8 -33 -8 -139zM4676 401v111q0 68 6 86q8 29 39 29q39 0 41 -54v-96q0 -90 -4 -112q-8 -33 -41 -33q-39 -1 -41 69z M4772 1434q0 -154 10 -179q23 -57 96 -57q78 0 101 59q6 18 6 64h-55q0 -76 -48 -76q-43 0 -49 55v80h152q0 104 -2 125q-12 82 -107 82q-66 0 -88 -47q-16 -32 -16 -106zM4833 1430q0 66 4 79q10 33 45 33q45 0 45 -65v-47h-94zM4884 293v377h58v-37q33 43 80 43 q51 0 73 -43q35 43 80 43q68 0 80 -66q4 -16 4 -71v-246h-61v246q0 47 -4 59q-8 33 -43 33q-49 0 -49 -90v-248h-62v246q0 47 -6 65q-8 27 -39 27q-49 0 -49 -92v-246h-62zM5046 1204v377h58v-70q37 80 102 76v-61q-68 0 -86 -41q-12 -25 -12 -101v-180h-62z" />
<glyph unicode="]" horiz-adv-x="2107" d="M125 399q29 168 78 263l-21 8q39 106 101 151l26 -39q-23 -16 -39 -37q16 10 33 15q100 152 240 233l8 -18q-61 -16 -115 -76l4 -4q-8 -4 -20 -18h-4q-33 -31 -76 -95l-27 19l-4 -10l-41 26l6 10q-76 -78 -81 -206l-48 4q10 166 111 249l-2 5l8 4q12 74 158 135l6 14 l8 -4q147 119 328 123q299 4 659 -240q147 -100 264 -277t156 -355q51 -70 66 -173l-47 -6q-14 96 -62 158q-72 326 -377 594q-82 72 -241 141q-145 63 -267 90q-92 20 -159 19q-152 -2 -299 -119l-4 -6q41 31 81 43q72 70 224 70q170 0 348 -68q356 -135 541 -416 q113 -172 153 -323q88 -119 96 -308l-47 -4q-2 23 -4 43v-14q0 -100 -26 -154l-43 21q23 49 22 131q-2 92 -33 227q-33 145 -73 215q-61 106 -88 146q-55 82 -105 135q-174 184 -467 274q72 -27 139 -63q143 18 336 -219q147 -182 224 -359q63 -147 65 -340q2 -82 -12 -161 l-47 8q20 115 6 237q-20 182 -114.5 362.5t-231.5 299.5q268 -268 346 -662l4 -20l8 -12l-6 -5q4 -31 4 -71q2 -100 -27 -168q-27 -59 -98.5 -140t-138.5 -110q-78 -84 -168 -84q-182 0 -342 350l-172 398q35 -162 178 -441q158 -307 344 -303q113 2 242 119l33 -37 q-16 -14 -31 -27q47 23 108 58l25 -41q-283 -158 -444 -160q-25 0 -43 2q-25 -6 -50 -6q-135 0 -245 151q-68 94 -164 240q98 -195 194 -295q104 -106 260 -102q12 -2 66 0q41 0 188 63q180 74 207 82l15 -47q-162 -49 -267 -102q-86 -43 -143 -45q-166 -2 -261 47t-186 186 q-176 268 -194 463l-10 6l6 10q-57 178 -58 316q0 90 25 166l45 -15q-23 -70 -22 -151q0 -129 57 -303q61 -51 57 -131q76 -195 244 -385q92 -104 186 -105q25 0 50 6q16 -4 45 -4q-190 47 -322 324q-186 395 -195 516q0 16 -6 63l4 2q-6 35 -6 72q0 168 117 197q2 0 70 12 q-12 2 -25 2q-41 0 -80 -33l-31 37q57 45 115 45q35 0 86 -24q102 -49 180 -132q53 -57 129 -178q31 -49 119 -231q59 -121 117 -250q8 -18 10 -47l-18 2q4 10 4 25q0 18 -6 41l-15 18l9 6q-31 66 -62 141q-14 37 -51 136q-141 344 -383 467q-76 39 -168 36 q-182 -2 -182 -186h-47q0 231 219 233q117 2 198 -40q256 -131 406 -488q14 -39 51 -139q6 -12 21 -35q35 -72 49 -129q4 -8 8 -10q4 -4 4 0q2 4 0 14q-195 537 -360 670q-113 90 -154 112q-61 33 -190 54l8 47q133 -20 202 -58q51 -27 162 -116q178 -143 379 -701 q-4 -86 -53 -73q0 -96 -84 -97q-86 -2 -162 150q-135 266 -164 317q-139 248 -200 252q-6 -25 -7 -47q0 -47 50 -127q82 -133 237 -414q109 -195 207 -194q27 0 51 16v-2q2 4 4 4h-2q125 92 125 176q-2 8 -4 21q-111 367 -233 557q-176 270 -465 356q-16 -12 -133 -24 q-217 -25 -301 -279l-45 14q47 150 135 226t241 90q47 4 52 6q18 4 47 20l-11 -24l2 -4h-2q-23 -6 -86 4q-53 8 -147 -29q-262 -104 -256 -516q2 -98 14 -166q41 -217 127 -438q115 -295 242 -352q6 -6 20 -6q20 0 54 12q31 -57 170 -51l2 -47q-104 -4 -156 18 q-43 -12 -78 -12q-57 0 -127 32l21 43q61 -29 110 -28q27 0 41 6l-4 -14l6 -2q-20 -6 -37 -7q-23 0 -36 11l-13 6q-41 20 -78 57q-135 133 -231 434q-90 279 -94 502q-6 299 131 455q-158 -129 -152 -371q0 -2 9 -90q0 -29 6 -104q55 -567 377 -846l-31 -37 q-311 264 -383 807q27 -416 264 -672q16 -18 53 -53l-33 -35q-193 172 -270 397q-61 176 -65 469q-4 219 34 375q-74 -217 -69 -463q2 -84 8 -145l-47 -4q-8 90 -10 147q-4 207 59 432q-51 -141 -55 -313l-47 2q2 72 10 139zM156 805l59 102l4 -2l72 94l37 -28l-84 -111 l-47 -80zM193 938q66 113 133 113q10 0 22 -2q193 156 408 155q72 0 141 -18q18 -8 53 -19q53 -10 193 -49q186 -63 356 -217q160 -143 262 -326q98 -14 172 -253l-47 -15q-49 172 -114 213l14 12q102 -178 119 -294l-47 -7q-18 119 -127 301l10 -4q-18 18 -27 33 q-104 182 -266 318q-168 141 -358 206q-43 14 -152 35q-23 10 -53 19q-61 16 -129 16q-207 0 -394 -156q-2 -2 -38 -34l-27 28q-29 -20 -64 -80zM215 1040q276 180 369 191q88 18 174 24q82 6 213 -36q160 -51 205 -70q113 -43 192 -94q287 -180 578 -621l-39 -26 q-180 268 -336 421q-207 205 -441 289q-254 92 -370 90q-137 -2 -271 -63q-86 -39 -247 -144zM236 299l47 -2q-18 -504 180 -748l-37 -28q-111 129 -160 368q-38 193 -30 410zM295 1143q78 68 119 67h24v-47q-35 0 -59 -16q-16 -8 -53 -41zM299 901q53 29 90 70l12 -17 q-70 -37 -88 -67zM317 1225q145 88 236 90q39 0 68 -12l110 22l8 -47l-106 -23q-18 -43 -86 -45q-49 0 -109 -36l-24 40q70 43 147 43q14 2 23 9q-12 4 -27 4q-74 0 -215 -86zM340 1305q178 63 291 63q43 0 82 -8l-11 -47q-33 8 -71 8q-104 0 -275 -61zM371 1370 q98 47 215 47q43 0 92 -6l-6 -47q-51 8 -92 8q-98 0 -189 -45zM424 741q145 172 389 170q-47 8 -90 9q-201 -1 -299 -179zM428 1503l152 23l2 -21q16 8 53 19l12 -45q-18 -6 -53 -21q16 -2 22 4l15 13l31 -37q-31 -25 -68 -25q-18 0 -39 6l-4 -4l-10 8l-99 -22l-10 45 l100 24l-98 -14zM432 387q0 78 6 152l49 -7q-12 -113 -10 -213q10 -526 303 -870q45 -53 82 -86l-31 -37q-199 172 -305 488q-94 274 -94 573zM434 -502l43 23q29 -59 119 -123l-29 -39q-98 69 -133 139zM479 1567q494 12 1018 -267q260 -139 459 -303l-31 -36 q-291 246 -678 401q-416 168 -766 156zM481 369q-2 94 11 141q8 35 53 131v4q35 84 86 107l22 -41q-37 -18 -67 -97l-4 -10l-21 8l10 17l15 -13q-61 -70 -58 -243q4 -240 78 -498q33 -119 133 -281q111 -180 199 -229q53 -29 162 -27q57 2 149 19l8 -47q-90 -16 -151 -19 q-129 -2 -191 33q-102 59 -215 242q-102 164 -139 297q-76 268 -80 506zM483 1579v47q506 0 994 -252q-319 190 -889 279l6 47q784 -121 1048 -387q12 -12 46 -43l73 -8q78 -41 119 -74l-31 -37q-35 29 -86 55q86 -74 144 -100l-21 -43q-59 27 -219 162l-55 6 q-78 72 -277 158q-162 70 -307 108q-309 82 -545 82zM532 348q0 186 60 301q78 152 246 156q12 0 53 -2l-4 -49q-27 2 -39 2q-272 -4 -266 -418q4 -315 170 -643q152 -301 321 -313l-4 -50l-22 2q-59 6 -136 66q-262 207 -362 752q-17 87 -17 196zM625 418q0 20 2 74l47 -3 q-14 -369 194 -679q-20 70 -118 276q-76 162 -80 340q-4 260 211 293l6 -47q-174 -27 -170 -242q4 -162 76 -324q29 -63 84 -188t51 -190q57 -76 117.5 -146.5t154.5 -107.5l-16 -43q-100 39 -170 110q-12 12 -125 160l-4 2l-11 4l3 8q-113 141 -180.5 331t-71.5 372z M625 977q72 20 143 20q63 0 147 -18q-80 20 -151 20q-76 1 -139 -22zM631 1700v47q287 -6 637 -152q303 -127 577 -323l-26 -39q-250 182 -568 313q-352 146 -620 154zM676 1462l8 47q455 -74 791 -254q66 -35 213 -137q135 -92 217 -131l-23 -43q-59 29 -92 47 q-51 29 -86 62q-61 59 -252 159q-334 178 -776 250zM678 1456q18 4 33 4q66 2 153 -65q420 -2 848 -379q82 10 209 -117l-35 -35q-57 59 -100 86q104 -98 182 -200l-37 -29q-104 133 -229 244l-8 -4l-6 16q-420 360 -818 371l-4 -9l-16 9h-2q-37 37 -150 28l-4 35l-8 -2z M709 1366q483 10 917 -348q219 -180 359 -383l-39 -27q-207 305 -537 504q-356 215 -698 205zM729 1260v49q240 -6 445 -95q86 0 208 -67q270 -147 590 -565l-39 -29q-135 178 -268 311q160 -166 289 -362l-39 -27q-150 229 -340 412q-229 221 -436 289v2q-193 78 -410 82z M739 -774l11 47q43 -10 86 -10q49 0 96 14l14 -47q-59 -16 -98 -16q-46 0 -109 12zM741 1747l4 49q244 -14 543 -145q252 -109 492 -277l-27 -39q-213 152 -483 269q-306 131 -529 143zM780 432q0 -43 17 -96q33 -33 143 -297q88 -207 143 -301q121 -201 238 -201 q35 0 70 19q-109 8 -189 131l41 26q72 -111 166 -110q25 0 49 10l17 16l8 -8q53 27 143 133q78 90 78 223q0 35 -4 80q-39 53 -82 160l-68 170q-23 47 -96 148q-240 332 -448 378q-6 2 -37 7q92 -29 141 -64l8 -4q96 -6 150 -100q84 -53 182 -205q82 -123 131 -242 q23 -55 49 -110q72 -115 72 -222q0 -61 -27 -106q-14 -104 -133 -189q-16 -74 -121 -75q-86 0 -196 123l-29 -25q-129 145 -129 225q0 10 2 23q-215 360 -217 493q-2 84 57 84q16 0 33 -6q8 2 19 2q94 0 253 -282q80 -141 158 -316q41 -92 86 -114q-10 14 -96 176 q-55 106 -207 381q-100 180 -223 178q-92 -2 -90 -90q0 -39 32 -111l-2 -2q127 -311 189 -434q156 -305 285 -332l-11 -47q-197 41 -397 530q-37 90 -133 326l10 12q-4 -4 -12 -2q-8 31 -8 60q0 137 137 139q145 4 264 -203q47 -82 207 -383q23 -43 84 -153l6 -11 q-14 37 -57 131q-117 260 -176 357q-123 203 -271 278q-23 -16 -61 -22l-64 -10q-41 -10 -62.5 -54.5t-21.5 -91.5zM797 1802l10 47q502 -98 866 -340l-26 -39q-350 236 -850 332zM827 897q29 -8 52 -8q10 0 20 2q-37 12 -72 18v-12zM862 -807l189 14l4 -47l-191 -14z M899 453q4 -143 199 -465q205 -338 325 -336q43 0 62 18l10 -16q-20 -6 -41 -6q-150 -2 -280 272q-61 127 -205 356q-59 94 -60 152q0 23 6 49q-12 2 -14 -4t-2 -20zM934 1831l8 47q223 -35 371 -135q127 -14 246 -115l-31 -37q-113 94 -232 107q-139 98 -362 133zM948 444 l41 25q96 -160 252 -428q29 -53 107 -186q61 -102 118 -101q55 0 125 96l39 -28q-80 -117 -160 -117q-88 -2 -163 125q-27 49 -101 176q-35 59 -258 438zM950 864q70 -23 146 -63q-4 6 -6 12q-41 29 -134 59q-2 -4 -6 -8zM983 -848h37q141 0 250 47l18 -43 q-119 -53 -270 -53h-35v49zM1038 -791q61 6 123 15q72 10 117 31l18 -43q-63 -29 -252 -50zM1049 -721q342 16 622 203l27 -41q-285 -186 -647 -211zM1081 -23l33 -14l-14 -16zM1130 803l11 16q25 -29 86 -57l-13 -17q-35 48 -84 58zM1251 698q49 -41 80 -73 q172 -186 322 -641q-2 53 -78 211q-6 23 -27 77q-72 180 -239 373q-29 33 -54 55v-2h-4zM1276 -756q51 16 145 66l27 -39q-39 -29 -154 -72zM1333 752q131 -133 238 -308q-97 177 -238 308zM1436 -690l161 65l19 -45l-162 -65zM1532 -381q160 88 186 221l45 -8l45 -18 q-43 -96 -90 -131l-12 16q-51 -66 -152 -121zM1593 -387q59 23 113 100l39 -28q-63 -90 -133 -117zM1606 377q25 -61 43 -105q-18 54 -43 105zM1860 242l47 12l24 -90l-45 -14zM1909 399l45 15l28 -86l-47 -15z" />
<glyph unicode="_" horiz-adv-x="2527" d="M-16 1714q0 59 51 60q61 0 137 -111q113 -47 231 -84l9 6l8 -12q102 -29 385 -74q313 -49 452 -49q625 0 1086 266q76 109 135 109q53 0 53 -58q0 -72 -59 -106l-119 -41q-100 -51 -311 -139q-84 -328 -84 -684q0 -389 100 -719q143 -51 281 -92q43 -12 96 -31 q47 -29 47 -90q0 -84 -53 -84q-47 0 -90 49q-16 20 -68 86q-403 152 -798 172q-309 16 -539 -12q-354 -43 -678 -211q-33 -45 -63 -88q-43 -49 -95 -49q-53 0 -53 59q0 53 41 88q25 20 295 148q201 211 557 700q-362 537 -567 774q-53 18 -189 66q-55 16 -131 43 q-67 34 -67 108zM754 133q219 45 458 49q-63 162 -227 463q-235 -289 -231 -512zM766 1403q80 -190 268 -553q211 293 211 434q0 49 -33 78q-223 4 -446 41zM1081 768q268 -406 416 -592q113 -8 223 -24q94 301 95 612q0 303 -89 635q-80 -14 -161 -23q-183 -192 -484 -608z " />
<glyph unicode="`" d="M250 1067q0 35 57 70q43 20 88 41l21 -43q-39 -18 -39 -31q0 -31 88 -72l115 -49l-131 -65l-123 40q-76 66 -76 109z" />
<glyph unicode="a" d="M59 133l66 33v520q80 41 242 119q84 -45 125 -86v8l163 84v-641l158 -113l-166 -84l-104 76q-152 -78 -213 -78q-45 0 -133 62q-40 28 -138 100zM291 172q119 -84 129 -84q33 0 72 29v391q-51 74 -201 160v-496z" />
<glyph unicode="b" horiz-adv-x="737" d="M23 217l143 72v1040l-129 82l168 84l127 -80v-729q145 121 227 121q186 0 186 -311q0 -281 -63 -369q-70 -94 -340 -166zM332 182l149 -119q72 53 90 177q8 53 9 206q0 240 -111 240q-33 0 -137 -78v-426z" />
<glyph unicode="c" horiz-adv-x="606" d="M35 152l80 38l-2 451q47 37 145 107q92 63 160 63q63 0 139 -78q33 -37 119 -129l-162 -82q-31 35 -94 103q-70 72 -105 71q-8 0 -22 -2l-14 -14v-500q45 -33 88 -67q53 -35 100 -35t98 55q27 31 80 90l39 -41q-18 -18 -70 -76q-133 -145 -245 -145q-82 0 -174 68 q-43 33 -160 123z" />
<glyph unicode="d" horiz-adv-x="671" d="M49 143l82 41l-2 414q190 160 371 180q-12 76 -51 115l-349 344l166 80q188 -172 201 -182q125 -125 162 -207q45 -102 45 -273v-495q-74 -57 -148 -117q-90 -59 -174 -59q-80 0 -164 53zM299 164q58 -72 114 -72h3l39 2q16 14 51 37l2 567q-125 -14 -209 -77v-457z" />
<glyph unicode="e" horiz-adv-x="618" d="M51 156l86 43v512l205 100h7q110 0 203 -60q95 -62 128 -169l-377 -375v-25q100 -61 184 -71l193 196l43 -41l-293 -289h-3q-121 1 -376 179zM303 305l203 201q-47 150 -203 184v-385z" />
<glyph unicode="f" horiz-adv-x="555" d="M-25 711v86h236v350q182 113 295 178q176 -59 225 -217l-160 -80q-39 117 -161 168l-33 -20v-379h307v-86h-307v-1022l-240 -152l-35 49l109 78v1047h-236z" />
<glyph unicode="g" horiz-adv-x="749" d="M-86 -571q0 125 190 219q158 78 295 78q172 0 283 -121l-160 -80q-84 90 -221 90q-219 0 -219 -137q0 -170 379 -170q356 0 356 233q0 63 -115 215q-53 68 -159 205l-4 68q-96 -68 -164 -68q-78 0 -172 68q-43 35 -162 123l78 38v482q66 70 139 84q68 55 135 55 q66 0 129 -63l17 -17v21l166 82v-793q57 -72 165 -215q113 -154 113 -234q0 -174 -238 -297q-199 -102 -389 -102q-158 0 -274 41q-168 60 -168 195zM285 180q43 -35 84 -69q52 -37 92 -38q4 0 8 1l29 2q12 12 39 43l2 395l-123 111q-86 74 -129 73h-2v-518z" />
<glyph unicode="h" horiz-adv-x="716" d="M6 1411l170 84l127 -80l-2 -676q98 66 180 66q119 0 197 -162v-522l98 -80l-164 -82l-186 152l86 43v421q-61 115 -121 115q-47 0 -90 -26l2 -531l84 -82l-166 -82l-153 154l67 35v1171z" />
<glyph unicode="i" horiz-adv-x="421" d="M51 733l164 84l143 -117v-546l138 -101l-166 -82l-242 179l105 51l2 417zM84 1102l164 82l174 -166l-164 -82z" />
<glyph unicode="j" horiz-adv-x="430" d="M63 -543l175 152v1009l-142 115l164 84l143 -117v-1073l-305 -217zM129 1102l164 82l174 -166l-164 -82z" />
<glyph unicode="k" horiz-adv-x="727" d="M6 1411l168 84l127 -80v-692q90 92 182 92q70 0 125.5 -48t55.5 -118q0 -115 -162 -196l225 -351l104 56l31 -60q-86 -43 -260 -131l-276 432l-27 -2l2 -264l82 -82l-162 -82l-153 154l67 35v1171zM299 463q201 35 201 131q0 37 -25.5 65.5t-62.5 28.5q-53 0 -111 -61z " />
<glyph unicode="l" horiz-adv-x="419" d="M20 1411l166 84l127 -80v-1245l224 -137l-168 -84l-328 198l109 56v1126z" />
<glyph unicode="m" horiz-adv-x="997" d="M23 733l165 82l131 -96l166 104l138 -106l168 106l161 -127v-561l76 -76l-164 -79l-149 149l71 35v450l-86 74l-53 -31l-2 -534l76 -76l-162 -80l-160 162l82 41v448l-84 70l-55 -31l2 -528l80 -80l-168 -82l-156 160l78 37v454z" />
<glyph unicode="n" horiz-adv-x="722" d="M12 735l164 82l111 -110q61 33 184 104h6q88 0 146 -56q59 -58 59 -151v-459l141 -100l-166 -82l-227 162l86 43v387q0 123 -110 143l-76 -41v-516l73 -92l-159 -80l-158 160l80 39l-2 414z" />
<glyph unicode="o" horiz-adv-x="677" d="M49 154l78 39l2 440q90 68 141 104q94 66 158 66q59 0 133 -72q45 -45 109 -113l-2 -477q-49 -37 -150 -106q-88 -57 -172 -58q-27 0 -55 9zM293 182q129 -100 158 -100q25 0 53 27v428q-27 29 -81 86t-89 57q-20 0 -41 -14v-484z" />
<glyph unicode="p" horiz-adv-x="647" d="M4 -508l131 131v989l-123 129l162 82l102 -106q158 86 201 86q119 0 193 -156l-2 -416q-86 -86 -265 -262l-104 51v-333l-246 -248zM301 195l162 -78l39 37v424q-53 109 -127 108q-20 0 -74 -27v-464z" />
<glyph unicode="q" horiz-adv-x="636" d="M76 625q80 59 239 184q29 4 52 4q74 0 133 -39l114 55l-2 -1198l-166 -84v537l-208 -115l-160 156zM242 207l104 -103l100 58q0 379 19 403l-16 -4q-60 119 -154 119h-12l-29 -2l-12 -8v-463z" />
<glyph unicode="r" horiz-adv-x="604" d="M25 733l172 84l122 -119q51 35 158 109q152 -41 201 -193l-158 -77q-39 98 -129 133l-45 -29v-498l137 -92l-168 -84l-229 158l94 47v406z" />
<glyph unicode="s" horiz-adv-x="616" d="M53 82l164 82q111 -86 213 -88q25 41 25 106q0 35 -6 74q-76 43 -222 133q-129 88 -129 203q0 45 25 92q45 31 135 90q84 53 148 53q72 0 130 -43t58 -112q0 -57 -92 -109q-51 -23 -193 -90q37 35 94 96q25 33 25 58q0 35 -28.5 56.5t-65.5 21.5q-10 0 -28.5 -3.5 t-26.5 -3.5l-5 -2q-10 -27 -10 -51q0 -84 135 -178q104 -59 209 -121q10 -59 10 -106q0 -115 -82.5 -196t-197.5 -81q-133 0 -285 119z" />
<glyph unicode="t" horiz-adv-x="608" d="M-16 797l223 -2v350l166 82v-430h223l2 -84h-225l-2 -586l96 -59l166 92l53 -39l-326 -180l-266 172l113 57v541h-221z" />
<glyph unicode="u" horiz-adv-x="753" d="M-2 735l162 82l164 -160v-462l110 -109l92 55v447l-153 147l162 82l155 -151v-476l176 -137l-164 -82l-143 111l-229 -131l-170 166v463z" />
<glyph unicode="v" horiz-adv-x="696" d="M-33 733l166 82l209 -151v-496q104 -86 129 -86q59 0 90 151q23 109 23 209q0 444 -357 555l234 56q252 -80 252 -457q0 -193 -70 -381q-94 -252 -256 -252q-59 0 -168 84q-10 8 -153 125l110 55v353z" />
<glyph unicode="w" horiz-adv-x="1081" d="M47 735l162 82l131 -125v-510l123 -86l69 54l-2 471l-120 114l161 82l125 -117v-499l119 -97q49 45 96 185q45 133 45 209q0 311 -323 424l227 53q121 -43 182 -162q55 -102 56 -242q0 -147 -117 -338q-98 -160 -231 -284l-179 139l-106 -68l-103 -79l-272 221l84 43v409 z" />
<glyph unicode="x" horiz-adv-x="768" d="M43 195l178 79l82 -88l70 154l-260 414l159 80l187 -299l131 294l235 -235l-178 -78l-78 82l-61 -139l256 -412l-158 -80l-186 295l-137 -307z" />
<glyph unicode="y" horiz-adv-x="714" d="M-72 -586q0 135 181 234q156 84 297 84q174 0 284 -121l-162 -80q-88 94 -229 94q-209 0 -209 -139q0 -174 377 -174q356 0 356 233q0 66 -116 219q-55 70 -164 209v90l-199 -102l-274 213l77 39v401l-133 123l160 80l139 -145v-475l142 -111l88 45v469l-137 137l163 80 l140 -135v-635q57 -72 168 -217q115 -152 114 -231q0 -182 -250 -301q-203 -96 -403 -97q-152 0 -252 35q-158 53 -158 178z" />
<glyph unicode="z" horiz-adv-x="694" d="M14 737l162 82q111 -133 232 -133q137 0 278 127l43 -41l-489 -590q74 25 151 25q188 0 375 -127l-166 -84q-135 94 -276 94q-135 0 -265 -117l-41 41l467 568q-72 -29 -139 -29q-168 0 -332 184zM145 410h445l2 -84h-445z" />
<glyph unicode="&#xa8;" d="M141 1053l111 55l98 -123l-108 -55zM358 1053l111 55l98 -123l-108 -55z" />
<glyph unicode="&#xaa;" d="M59 133l66 33v520q80 41 242 119q84 -45 125 -86v8l163 84v-641l158 -113l-166 -84l-104 76q-152 -78 -213 -78q-45 0 -133 62q-40 28 -138 100zM291 172q119 -84 129 -84q33 0 72 29v391q-51 74 -201 160v-496z" />
<glyph unicode="&#xad;" horiz-adv-x="430" d="M72 330l303 151l94 -47l-305 -151zM72 506l303 151l94 -45l-305 -153z" />
<glyph unicode="&#xb2;" horiz-adv-x="1927" d="M-4 1704q0 55 57 55q49 0 88 -51q2 -4 54 -92q393 -203 766 -203q172 0 393 62q250 70 346 167q6 8 63 97q39 61 88 61q57 0 58 -55q0 -55 -31 -88q-41 -43 -362 -219q-98 -365 -99 -713q0 -379 111 -729q182 -61 237 -88q166 -78 166 -160q0 -55 -57 -55t-121 110 q-395 205 -770 205q-401 0 -754 -237q-51 -78 -59 -90q-43 -55 -84 -56q-57 0 -57 56q0 63 37 96q119 80 397 221q111 342 110 719q0 344 -88 686q-133 41 -372 156q-57 29 -82 51q-35 33 -35 94zM731 729q0 -305 103 -639q70 6 141 6q90 0 182 -10q102 324 103 639 q0 283 -84 614q-100 -14 -205 -14q-76 0 -156 8q-84 -328 -84 -604z" />
<glyph unicode="&#xb3;" horiz-adv-x="2469" d="M4 1704q0 55 55 55q68 0 131 -127q522 -217 1033 -217q565 0 1032 258q76 131 133 131q55 0 55 -55q0 -72 -45 -107q-8 -6 -104 -51q-164 -76 -305 -137q-86 -340 -86 -719q0 -410 102 -749q100 -29 307 -107q76 -29 107 -53q47 -39 47 -105q0 -55 -56 -55 q-57 0 -135 133q-158 63 -321 109l-17 -4l-2 10q-350 94 -684 94q-563 0 -1036 -268q-66 -115 -123 -115q-55 0 -55 56q0 80 63 118q43 16 131 51q45 23 164 78q113 352 113 781q0 401 -90 747q-180 51 -246 82q-168 76 -168 166zM666 729q0 -342 104 -682q123 27 252 39 q104 326 104 637q0 279 -86 610q-145 12 -290 39q-84 -334 -84 -643zM1284 727q0 -301 105 -635q129 -6 260 -26q96 317 96 653q0 313 -84 645q-143 -27 -291 -35q-86 -330 -86 -602z" />
<glyph unicode="&#xb4;" d="M199 926q41 12 98 49q70 45 70 78q0 23 -70 57l145 74q70 -35 70 -84q0 -74 -111 -144q-16 -10 -174 -90z" />
<glyph unicode="&#xb7;" horiz-adv-x="247" d="M-45 516l164 82l174 -166l-164 -82z" />
<glyph unicode="&#x2219;" horiz-adv-x="247" d="M-45 516l164 82l174 -166l-164 -82z" />
<glyph unicode="&#xb8;" horiz-adv-x="606" d="M242 4l120 59q147 -47 148 -135q0 -88 -137 -190l-88 -45l-17 28q117 80 117 158t-143 125z" />
<glyph unicode="&#xb9;" horiz-adv-x="1028" d="M-16 -174q0 88 141 162q106 55 223 75q100 322 101 691q0 319 -87 655q-123 25 -231 80q-147 76 -147 166q0 76 65 76q55 0 111 -152q133 -96 348 -96q207 0 356 86q66 137 121 137q61 0 62 -70q0 -86 -134 -153q-96 -49 -208 -72q-86 -336 -87 -649q0 -354 109 -701 q35 -27 127 -62.5t129 -64.5q63 -47 64 -110q0 -70 -62 -70q-55 0 -121 140q-152 92 -364 92q-211 0 -344 -95q-51 -141 -107 -141q-65 0 -65 76z" />
<glyph unicode="&#xba;" horiz-adv-x="677" d="M49 154l78 39l2 440q90 68 141 104q94 66 158 66q59 0 133 -72q45 -45 109 -113l-2 -477q-49 -37 -150 -106q-88 -57 -172 -58q-27 0 -55 9zM293 182q129 -100 158 -100q25 0 53 27v428q-27 29 -81 86t-89 57q-20 0 -41 -14v-484z" />
<glyph unicode="&#xc0;" horiz-adv-x="1517" d="M18 -147q0 88 142 145q102 41 215 49l272 1395q-154 43 -274 102q-186 92 -187 187q0 74 64 73q49 0 94 -69q20 -35 62 -107q254 -141 509 -141q205 0 375 82q80 113 137 112q53 0 54 -59q0 -111 -289 -188q-18 -147 -18 -297q0 -588 245 -1110q102 -29 187 -74 q119 -63 118 -133q0 -57 -51 -58q-45 0 -90 50q-33 43 -65 84q-123 68 -283 67q-172 0 -248 -96q-16 -23 -51 -70q-33 -35 -76 -35q-53 0 -53 58q0 84 78 137q45 31 157 66q29 158 29 331q0 121 -14 250h-486l-106 -561q156 -16 291 -125q33 -27 32 -65q0 -59 -53 -60 q-41 0 -86 47q-12 14 -61 80q-88 39 -187 39q-88 0 -180 -39l-63 -82q-43 -45 -86 -45q-54 1 -54 60zM590 692h454q-51 362 -198 715q-57 4 -113 16z" />
<glyph unicode="&#xc1;" horiz-adv-x="1517" d="M18 -147q0 88 142 145q102 41 215 49l272 1395q-154 43 -274 102q-186 92 -187 187q0 74 64 73q49 0 94 -69q20 -35 62 -107q254 -141 509 -141q205 0 375 82q80 113 137 112q53 0 54 -59q0 -111 -289 -188q-18 -147 -18 -297q0 -588 245 -1110q102 -29 187 -74 q119 -63 118 -133q0 -57 -51 -58q-45 0 -90 50q-33 43 -65 84q-123 68 -283 67q-172 0 -248 -96q-16 -23 -51 -70q-33 -35 -76 -35q-53 0 -53 58q0 84 78 137q45 31 157 66q29 158 29 331q0 121 -14 250h-486l-106 -561q156 -16 291 -125q33 -27 32 -65q0 -59 -53 -60 q-41 0 -86 47q-12 14 -61 80q-88 39 -187 39q-88 0 -180 -39l-63 -82q-43 -45 -86 -45q-54 1 -54 60zM590 692h454q-51 362 -198 715q-57 4 -113 16z" />
<glyph unicode="&#xc2;" horiz-adv-x="1517" d="M18 -147q0 88 142 145q102 41 215 49l272 1395q-154 43 -274 102q-186 92 -187 187q0 74 64 73q49 0 94 -69q20 -35 62 -107q254 -141 509 -141q205 0 375 82q80 113 137 112q53 0 54 -59q0 -111 -289 -188q-18 -147 -18 -297q0 -588 245 -1110q102 -29 187 -74 q119 -63 118 -133q0 -57 -51 -58q-45 0 -90 50q-33 43 -65 84q-123 68 -283 67q-172 0 -248 -96q-16 -23 -51 -70q-33 -35 -76 -35q-53 0 -53 58q0 84 78 137q45 31 157 66q29 158 29 331q0 121 -14 250h-486l-106 -561q156 -16 291 -125q33 -27 32 -65q0 -59 -53 -60 q-41 0 -86 47q-12 14 -61 80q-88 39 -187 39q-88 0 -180 -39l-63 -82q-43 -45 -86 -45q-54 1 -54 60zM590 692h454q-51 362 -198 715q-57 4 -113 16z" />
<glyph unicode="&#xc3;" horiz-adv-x="1517" d="M18 -147q0 88 142 145q102 41 215 49l272 1395q-154 43 -274 102q-186 92 -187 187q0 74 64 73q49 0 94 -69q20 -35 62 -107q254 -141 509 -141q205 0 375 82q80 113 137 112q53 0 54 -59q0 -111 -289 -188q-18 -147 -18 -297q0 -588 245 -1110q102 -29 187 -74 q119 -63 118 -133q0 -57 -51 -58q-45 0 -90 50q-33 43 -65 84q-123 68 -283 67q-172 0 -248 -96q-16 -23 -51 -70q-33 -35 -76 -35q-53 0 -53 58q0 84 78 137q45 31 157 66q29 158 29 331q0 121 -14 250h-486l-106 -561q156 -16 291 -125q33 -27 32 -65q0 -59 -53 -60 q-41 0 -86 47q-12 14 -61 80q-88 39 -187 39q-88 0 -180 -39l-63 -82q-43 -45 -86 -45q-54 1 -54 60zM590 692h454q-51 362 -198 715q-57 4 -113 16z" />
<glyph unicode="&#xc4;" horiz-adv-x="1517" d="M18 -147q0 88 142 145q102 41 215 49l272 1395q-154 43 -274 102q-186 92 -187 187q0 74 64 73q49 0 94 -69q20 -35 62 -107q254 -141 509 -141q205 0 375 82q80 113 137 112q53 0 54 -59q0 -111 -289 -188q-18 -147 -18 -297q0 -588 245 -1110q102 -29 187 -74 q119 -63 118 -133q0 -57 -51 -58q-45 0 -90 50q-33 43 -65 84q-123 68 -283 67q-172 0 -248 -96q-16 -23 -51 -70q-33 -35 -76 -35q-53 0 -53 58q0 84 78 137q45 31 157 66q29 158 29 331q0 121 -14 250h-486l-106 -561q156 -16 291 -125q33 -27 32 -65q0 -59 -53 -60 q-41 0 -86 47q-12 14 -61 80q-88 39 -187 39q-88 0 -180 -39l-63 -82q-43 -45 -86 -45q-54 1 -54 60zM590 692h454q-51 362 -198 715q-57 4 -113 16z" />
<glyph unicode="&#xc5;" horiz-adv-x="1517" d="M18 -147q0 88 142 145q102 41 215 49l272 1395q-154 43 -274 102q-186 92 -187 187q0 74 64 73q49 0 94 -69q20 -35 62 -107q254 -141 509 -141q205 0 375 82q80 113 137 112q53 0 54 -59q0 -111 -289 -188q-18 -147 -18 -297q0 -588 245 -1110q102 -29 187 -74 q119 -63 118 -133q0 -57 -51 -58q-45 0 -90 50q-33 43 -65 84q-123 68 -283 67q-172 0 -248 -96q-16 -23 -51 -70q-33 -35 -76 -35q-53 0 -53 58q0 84 78 137q45 31 157 66q29 158 29 331q0 121 -14 250h-486l-106 -561q156 -16 291 -125q33 -27 32 -65q0 -59 -53 -60 q-41 0 -86 47q-12 14 -61 80q-88 39 -187 39q-88 0 -180 -39l-63 -82q-43 -45 -86 -45q-54 1 -54 60zM590 692h454q-51 362 -198 715q-57 4 -113 16z" />
<glyph unicode="&#xc6;" horiz-adv-x="2111" d="M-29 -180q0 82 154 141q121 47 229 55l480 1426q-133 39 -252 100q-168 88 -168 176q0 86 73 86q49 0 84 -69q16 -31 47 -109q303 -180 803 -180q393 0 559 82q35 23 111 61q39 78 94 97l31 -9q20 -23 20 -51q0 -47 -51 -84q-6 -6 -106 -61q-147 -82 -148 -211 q0 -76 51 -176q123 -84 123 -133q0 -59 -59 -60q-90 0 -152 150q-49 119 -49 221q0 68 27 127q-195 -47 -494 -39q-74 -279 -84 -559q23 0 72 -4t76 -4l76 2q0 82 55 186q61 115 131 133l33 2l26 -31q8 -33 -22 -63q-47 -47 -96 -94q-39 -51 -39 -135q0 -111 96 -265 q49 -20 65 -63l-4 -29q-20 -23 -51 -22q-53 0 -115 116q-47 90 -69 177q-33 0 -117 2t-117 2q2 -344 103 -660h123q176 0 350 -41q-25 55 -25 123q0 102 58 227q70 152 163 152l19 -2q39 -20 39 -59q0 -57 -148 -150q-43 -86 -43 -164t41 -127q29 -35 105 -78q25 -14 94 -55 l-4 -8q14 -20 14 -43l-10 -33l-29 -12q-47 8 -78 51q-182 88 -364 115q-117 16 -383 16q-207 0 -356 -57q-70 -104 -123 -105q-51 0 -52 58q0 80 82 116q37 16 150 37q88 274 100 592h-477l-199 -592q141 -16 279 -129l12 -16q4 -14 4 -33q0 -72 -59 -72q-43 0 -80 45 q-4 6 -51 82q-82 37 -180 37q-88 0 -187 -37l-73 -82q-47 -45 -93 -45q-45 1 -45 58zM672 692h450q2 354 -86 701q-57 10 -121 26z" />
<glyph unicode="&#xc7;" horiz-adv-x="1196" d="M23 731q0 252 118 461q129 229 355 307q55 18 215 25q158 6 327 -142q47 100 47 152q0 23 -11 64.5t-11 64.5q0 33 19.5 68.5t50.5 35.5q37 0 66.5 -33.5t29.5 -70.5q0 -111 -80 -295q-90 -207 -105 -289q74 -178 74 -262q0 -102 -98 -102q-119 0 -119 155q0 170 88 408 q-150 139 -317 139q-59 0 -129 -41t-107 -92q-111 -150 -110 -522q0 -238 75 -440q102 -274 299 -275q115 0 250 94q4 59 43 115q-6 25 -6 45q0 37 19 70l32 14q76 -12 76 -90q0 -31 -26.5 -88t-26.5 -86q0 -55 76.5 -129t76.5 -113q0 -31 -20 -51.5t-51 -20.5 q-115 0 -150 170l-24 48q-141 -90 -301 -91q-291 0 -478 261q-167 233 -167 536zM514 -25l121 62q147 -47 147 -135t-137 -193l-88 -43l-16 29q117 78 116 155q0 80 -143 125z" />
<glyph unicode="&#xc8;" horiz-adv-x="1546" d="M33 1636q0 68 59 68q53 0 125 -135q213 -123 639 -123q401 0 559 82q31 18 113 61q39 78 94 97l31 -9q20 -23 20 -51q0 -47 -53 -86q-12 -8 -104 -59q-147 -80 -148 -211q0 -76 51 -176q121 -86 121 -133q0 -59 -59 -60q-88 0 -150 150q-51 123 -51 221q0 68 27 127 q-193 -47 -494 -39q-74 -279 -82 -559q23 0 73 -4t75 -4l73 2q0 82 56 186q61 115 131 133q6 0 32 2l29 -31q8 -33 -22 -63q-86 -86 -97 -100q-41 -55 -41 -129q0 -111 99 -265q47 -20 65 -63l-4 -29q-23 -23 -51 -22q-55 0 -117 116q-45 86 -67 177q-31 0 -116 2t-120 2 q2 -344 105 -660h122q176 0 349 -41q-25 55 -25 123q0 102 57 227q70 152 164 152l21 -2q39 -20 39 -59q0 -57 -148 -150q-45 -86 -45 -164t41 -127q31 -37 107 -78q63 -35 67 -38q37 -29 37 -68l-10 -33l-29 -12q-47 8 -80 51q-166 80 -315 109q-121 23 -330 22 q-420 0 -633 -121q-63 -90 -123 -90q-53 0 -53 58q0 125 408 202q104 319 104 699q0 342 -86 682q-141 25 -264 77q-176 76 -176 166z" />
<glyph unicode="&#xc9;" horiz-adv-x="1546" d="M33 1636q0 68 59 68q53 0 125 -135q213 -123 639 -123q401 0 559 82q31 18 113 61q39 78 94 97l31 -9q20 -23 20 -51q0 -47 -53 -86q-12 -8 -104 -59q-147 -80 -148 -211q0 -76 51 -176q121 -86 121 -133q0 -59 -59 -60q-88 0 -150 150q-51 123 -51 221q0 68 27 127 q-193 -47 -494 -39q-74 -279 -82 -559q23 0 73 -4t75 -4l73 2q0 82 56 186q61 115 131 133q6 0 32 2l29 -31q8 -33 -22 -63q-86 -86 -97 -100q-41 -55 -41 -129q0 -111 99 -265q47 -20 65 -63l-4 -29q-23 -23 -51 -22q-55 0 -117 116q-45 86 -67 177q-31 0 -116 2t-120 2 q2 -344 105 -660h122q176 0 349 -41q-25 55 -25 123q0 102 57 227q70 152 164 152l21 -2q39 -20 39 -59q0 -57 -148 -150q-45 -86 -45 -164t41 -127q31 -37 107 -78q63 -35 67 -38q37 -29 37 -68l-10 -33l-29 -12q-47 8 -80 51q-166 80 -315 109q-121 23 -330 22 q-420 0 -633 -121q-63 -90 -123 -90q-53 0 -53 58q0 125 408 202q104 319 104 699q0 342 -86 682q-141 25 -264 77q-176 76 -176 166z" />
<glyph unicode="&#xca;" horiz-adv-x="1546" d="M33 1636q0 68 59 68q53 0 125 -135q213 -123 639 -123q401 0 559 82q31 18 113 61q39 78 94 97l31 -9q20 -23 20 -51q0 -47 -53 -86q-12 -8 -104 -59q-147 -80 -148 -211q0 -76 51 -176q121 -86 121 -133q0 -59 -59 -60q-88 0 -150 150q-51 123 -51 221q0 68 27 127 q-193 -47 -494 -39q-74 -279 -82 -559q23 0 73 -4t75 -4l73 2q0 82 56 186q61 115 131 133q6 0 32 2l29 -31q8 -33 -22 -63q-86 -86 -97 -100q-41 -55 -41 -129q0 -111 99 -265q47 -20 65 -63l-4 -29q-23 -23 -51 -22q-55 0 -117 116q-45 86 -67 177q-31 0 -116 2t-120 2 q2 -344 105 -660h122q176 0 349 -41q-25 55 -25 123q0 102 57 227q70 152 164 152l21 -2q39 -20 39 -59q0 -57 -148 -150q-45 -86 -45 -164t41 -127q31 -37 107 -78q63 -35 67 -38q37 -29 37 -68l-10 -33l-29 -12q-47 8 -80 51q-166 80 -315 109q-121 23 -330 22 q-420 0 -633 -121q-63 -90 -123 -90q-53 0 -53 58q0 125 408 202q104 319 104 699q0 342 -86 682q-141 25 -264 77q-176 76 -176 166z" />
<glyph unicode="&#xcb;" horiz-adv-x="1546" d="M33 1636q0 68 59 68q53 0 125 -135q213 -123 639 -123q401 0 559 82q31 18 113 61q39 78 94 97l31 -9q20 -23 20 -51q0 -47 -53 -86q-12 -8 -104 -59q-147 -80 -148 -211q0 -76 51 -176q121 -86 121 -133q0 -59 -59 -60q-88 0 -150 150q-51 123 -51 221q0 68 27 127 q-193 -47 -494 -39q-74 -279 -82 -559q23 0 73 -4t75 -4l73 2q0 82 56 186q61 115 131 133q6 0 32 2l29 -31q8 -33 -22 -63q-86 -86 -97 -100q-41 -55 -41 -129q0 -111 99 -265q47 -20 65 -63l-4 -29q-23 -23 -51 -22q-55 0 -117 116q-45 86 -67 177q-31 0 -116 2t-120 2 q2 -344 105 -660h122q176 0 349 -41q-25 55 -25 123q0 102 57 227q70 152 164 152l21 -2q39 -20 39 -59q0 -57 -148 -150q-45 -86 -45 -164t41 -127q31 -37 107 -78q63 -35 67 -38q37 -29 37 -68l-10 -33l-29 -12q-47 8 -80 51q-166 80 -315 109q-121 23 -330 22 q-420 0 -633 -121q-63 -90 -123 -90q-53 0 -53 58q0 125 408 202q104 319 104 699q0 342 -86 682q-141 25 -264 77q-176 76 -176 166z" />
<glyph unicode="&#xcc;" horiz-adv-x="927" d="M45 -174q0 88 141 162q106 55 224 75q100 322 100 691q0 319 -86 655q-121 25 -229 80q-150 76 -150 166q0 76 66 76q55 0 110 -152q135 -96 350 -96q207 0 357 86q63 137 119 137q61 0 61 -70q0 -84 -133 -153q-96 -49 -209 -72q-86 -336 -86 -649q0 -354 108 -701 q37 -27 127.5 -62.5t128.5 -64.5q63 -47 64 -110q0 -70 -61 -70q-55 0 -121 140q-152 92 -365 92q-209 0 -344 -95q-51 -141 -106 -141q-66 0 -66 76z" />
<glyph unicode="&#xcd;" horiz-adv-x="927" d="M45 -174q0 88 141 162q106 55 224 75q100 322 100 691q0 319 -86 655q-121 25 -229 80q-150 76 -150 166q0 76 66 76q55 0 110 -152q135 -96 350 -96q207 0 357 86q63 137 119 137q61 0 61 -70q0 -84 -133 -153q-96 -49 -209 -72q-86 -336 -86 -649q0 -354 108 -701 q37 -27 127.5 -62.5t128.5 -64.5q63 -47 64 -110q0 -70 -61 -70q-55 0 -121 140q-152 92 -365 92q-209 0 -344 -95q-51 -141 -106 -141q-66 0 -66 76z" />
<glyph unicode="&#xce;" horiz-adv-x="927" d="M45 -174q0 88 141 162q106 55 224 75q100 322 100 691q0 319 -86 655q-121 25 -229 80q-150 76 -150 166q0 76 66 76q55 0 110 -152q135 -96 350 -96q207 0 357 86q63 137 119 137q61 0 61 -70q0 -84 -133 -153q-96 -49 -209 -72q-86 -336 -86 -649q0 -354 108 -701 q37 -27 127.5 -62.5t128.5 -64.5q63 -47 64 -110q0 -70 -61 -70q-55 0 -121 140q-152 92 -365 92q-209 0 -344 -95q-51 -141 -106 -141q-66 0 -66 76z" />
<glyph unicode="&#xcf;" horiz-adv-x="927" d="M45 -174q0 88 141 162q106 55 224 75q100 322 100 691q0 319 -86 655q-121 25 -229 80q-150 76 -150 166q0 76 66 76q55 0 110 -152q135 -96 350 -96q207 0 357 86q63 137 119 137q61 0 61 -70q0 -84 -133 -153q-96 -49 -209 -72q-86 -336 -86 -649q0 -354 108 -701 q37 -27 127.5 -62.5t128.5 -64.5q63 -47 64 -110q0 -70 -61 -70q-55 0 -121 140q-152 92 -365 92q-209 0 -344 -95q-51 -141 -106 -141q-66 0 -66 76z" />
<glyph unicode="&#xd0;" horiz-adv-x="1689" d="M12 -141q0 109 189 164q125 37 282 43q90 289 99 626l-240 2v103l240 -2q-4 336 -84 657q-127 27 -246 82q-168 78 -168 166q0 66 59 65q57 0 125 -135q178 -113 406 -106l90 2q55 4 164 18q82 14 123 15q299 0 487 -269q168 -238 168 -547q0 -354 -212 -566t-566 -212 q-51 0 -150.5 6t-150.5 6q-289 0 -404 -38q-33 -45 -65 -89q-47 -51 -92 -51q-54 1 -54 60zM739 672q0 -340 78 -611h41q276 0 434 168q152 166 152 445q0 233 -82 420q-94 217 -283 307q-98 47 -168 47q-31 0 -75 -6q-82 -324 -95 -647l238 -2v-103l-240 2v-20z" />
<glyph unicode="&#xd1;" horiz-adv-x="1746" d="M-2 1690q0 27 16.5 58.5t40.5 31.5q76 0 99 -174q150 -154 317 -154q98 0 219 64v-3l51 21l-2 4q186 76 338 76q541 0 541 -762q0 -82 -25.5 -245t-25.5 -245q0 -322 196 -399l140 -53q70 -39 69 -127q0 -57 -55 -57t-123 120q-375 195 -803 195q-453 0 -790 -223 q-59 -137 -115 -137q-59 0 -59 71q0 113 331 258q104 342 105 699q0 322 -82 659q-94 23 -170 74q-23 14 -76 55q-137 117 -137 193zM547 1655q100 57 303 184l285 -96l49 43l84 82l49 -39l-162 -156l-127 -63l-268 102l-55 -37l-134 -65zM629 788q0 -344 94 -673 q127 18 258 18q100 0 201 -10q223 164 223 694q0 250 -96 440q-119 233 -332 234q-123 0 -270 -70q-78 -318 -78 -633z" />
<glyph unicode="&#xd2;" horiz-adv-x="1484" d="M16 743q0 307 181 555q199 270 495 271h144q297 0 495 -271q180 -248 180 -555q0 -365 -190 -591q-203 -242 -561 -242q-354 0 -555 244q-189 227 -189 589zM317 702q0 -264 93 -448q117 -236 348 -236q442 0 442 777q0 276 -82 450q-111 236 -354 236q-248 0 -363 -277 q-84 -203 -84 -502z" />
<glyph unicode="&#xd3;" horiz-adv-x="1484" d="M16 743q0 307 181 555q199 270 495 271h144q297 0 495 -271q180 -248 180 -555q0 -365 -190 -591q-203 -242 -561 -242q-354 0 -555 244q-189 227 -189 589zM317 702q0 -264 93 -448q117 -236 348 -236q442 0 442 777q0 276 -82 450q-111 236 -354 236q-248 0 -363 -277 q-84 -203 -84 -502z" />
<glyph unicode="&#xd4;" horiz-adv-x="1484" d="M16 743q0 307 181 555q199 270 495 271h144q297 0 495 -271q180 -248 180 -555q0 -365 -190 -591q-203 -242 -561 -242q-354 0 -555 244q-189 227 -189 589zM317 702q0 -264 93 -448q117 -236 348 -236q442 0 442 777q0 276 -82 450q-111 236 -354 236q-248 0 -363 -277 q-84 -203 -84 -502z" />
<glyph unicode="&#xd5;" horiz-adv-x="1484" d="M16 743q0 307 181 555q199 270 495 271h144q297 0 495 -271q180 -248 180 -555q0 -365 -190 -591q-203 -242 -561 -242q-354 0 -555 244q-189 227 -189 589zM317 702q0 -264 93 -448q117 -236 348 -236q442 0 442 777q0 276 -82 450q-111 236 -354 236q-248 0 -363 -277 q-84 -203 -84 -502z" />
<glyph unicode="&#xd6;" horiz-adv-x="1484" d="M16 743q0 307 181 555q199 270 495 271h144q297 0 495 -271q180 -248 180 -555q0 -365 -190 -591q-203 -242 -561 -242q-354 0 -555 244q-189 227 -189 589zM317 702q0 -264 93 -448q117 -236 348 -236q442 0 442 777q0 276 -82 450q-111 236 -354 236q-248 0 -363 -277 q-84 -203 -84 -502z" />
<glyph unicode="&#xd8;" horiz-adv-x="1521" d="M16 743q0 307 181 555q199 270 495 271h144q178 0 327 -109l66 109l88 -53l-74 -121q125 -121 196.5 -297t71.5 -355q0 -365 -190 -591q-203 -242 -561 -242q-201 0 -361 84l-90 -152l-88 54l92 153q-297 227 -297 694zM319 702q0 -283 103 -473l655 1088 q-111 164 -313 164q-250 0 -363 -277q-82 -199 -82 -502zM487 139q106 -121 271 -121q442 0 442 777q0 250 -67 417z" />
<glyph unicode="&#xd9;" horiz-adv-x="1855" d="M2 1604q0 55 57 55q55 0 123 -113q401 -205 865 -205q463 0 813 213q74 150 127 150q59 0 59 -70q0 -33 -14 -61l4 -6q-147 -94 -160 -103q-94 -57 -164 -88q-111 -344 -110 -700q0 -326 86 -664q190 -43 360 -233l-2 -2q31 -41 31 -84q0 -27 -16.5 -57.5t-41.5 -30.5 q-55 0 -82 69q-8 20 -22 117q-154 139 -320 139q-106 0 -231 -61v2l-55 -23v-4q-199 -78 -361 -77q-266 0 -418 184q-141 170 -141 442q0 39 2 115t2 115q0 68 24.5 199.5t24.5 199.5q0 362 -221 399v4q-117 39 -143 54q-76 43 -76 125zM608 565q0 -250 105 -442 q127 -233 350 -234q127 0 285 70q82 319 82 635q0 346 -101 678q-133 -18 -272 -19q-104 0 -211 11q-129 -90 -191 -318q-47 -172 -47 -381z" />
<glyph unicode="&#xda;" horiz-adv-x="1855" d="M2 1604q0 55 57 55q55 0 123 -113q401 -205 865 -205q463 0 813 213q74 150 127 150q59 0 59 -70q0 -33 -14 -61l4 -6q-147 -94 -160 -103q-94 -57 -164 -88q-111 -344 -110 -700q0 -326 86 -664q190 -43 360 -233l-2 -2q31 -41 31 -84q0 -27 -16.5 -57.5t-41.5 -30.5 q-55 0 -82 69q-8 20 -22 117q-154 139 -320 139q-106 0 -231 -61v2l-55 -23v-4q-199 -78 -361 -77q-266 0 -418 184q-141 170 -141 442q0 39 2 115t2 115q0 68 24.5 199.5t24.5 199.5q0 362 -221 399v4q-117 39 -143 54q-76 43 -76 125zM608 565q0 -250 105 -442 q127 -233 350 -234q127 0 285 70q82 319 82 635q0 346 -101 678q-133 -18 -272 -19q-104 0 -211 11q-129 -90 -191 -318q-47 -172 -47 -381z" />
<glyph unicode="&#xdb;" horiz-adv-x="1855" d="M2 1604q0 55 57 55q55 0 123 -113q401 -205 865 -205q463 0 813 213q74 150 127 150q59 0 59 -70q0 -33 -14 -61l4 -6q-147 -94 -160 -103q-94 -57 -164 -88q-111 -344 -110 -700q0 -326 86 -664q190 -43 360 -233l-2 -2q31 -41 31 -84q0 -27 -16.5 -57.5t-41.5 -30.5 q-55 0 -82 69q-8 20 -22 117q-154 139 -320 139q-106 0 -231 -61v2l-55 -23v-4q-199 -78 -361 -77q-266 0 -418 184q-141 170 -141 442q0 39 2 115t2 115q0 68 24.5 199.5t24.5 199.5q0 362 -221 399v4q-117 39 -143 54q-76 43 -76 125zM608 565q0 -250 105 -442 q127 -233 350 -234q127 0 285 70q82 319 82 635q0 346 -101 678q-133 -18 -272 -19q-104 0 -211 11q-129 -90 -191 -318q-47 -172 -47 -381z" />
<glyph unicode="&#xdc;" horiz-adv-x="1855" d="M2 1604q0 55 57 55q55 0 123 -113q401 -205 865 -205q463 0 813 213q74 150 127 150q59 0 59 -70q0 -33 -14 -61l4 -6q-147 -94 -160 -103q-94 -57 -164 -88q-111 -344 -110 -700q0 -326 86 -664q190 -43 360 -233l-2 -2q31 -41 31 -84q0 -27 -16.5 -57.5t-41.5 -30.5 q-55 0 -82 69q-8 20 -22 117q-154 139 -320 139q-106 0 -231 -61v2l-55 -23v-4q-199 -78 -361 -77q-266 0 -418 184q-141 170 -141 442q0 39 2 115t2 115q0 68 24.5 199.5t24.5 199.5q0 362 -221 399v4q-117 39 -143 54q-76 43 -76 125zM608 565q0 -250 105 -442 q127 -233 350 -234q127 0 285 70q82 319 82 635q0 346 -101 678q-133 -18 -272 -19q-104 0 -211 11q-129 -90 -191 -318q-47 -172 -47 -381z" />
<glyph unicode="&#xdd;" horiz-adv-x="1290" d="M-18 1657q0 55 57 55q45 0 92 -67l-14 2q49 -51 141 -94.5t160 -43.5q139 0 244 76q66 135 118 135q61 0 62 -69q0 -100 -201 -189q20 -133 125 -313q141 -246 164 -299q43 78 125 235q76 154 75 246q0 63 -38 105q-78 27 -144 80q-82 66 -82 131q0 76 66 75q39 0 78 -71 q23 -53 45 -105q86 -51 194 -51q178 0 320 152q70 74 86 73q61 0 61 -69q0 -70 -67 -113q-20 -12 -131 -55q-219 -84 -297 -242q-117 -233 -256 -520q0 -360 108 -703q330 -86 330 -221q0 -55 -57 -55q-55 0 -127 125q-154 96 -373 96q-227 0 -363 -106q-59 -123 -112 -123 q-61 0 -62 69q0 84 156 160q117 57 227 78q102 322 101 690q-53 145 -226 363q-238 297 -268 344q-23 10 -117 47q-51 20 -133 51q-67 39 -67 121z" />
<glyph unicode="&#xde;" horiz-adv-x="1495" d="M45 -174q0 90 143 164q104 53 222 73q100 322 100 691q0 340 -86 676q-127 27 -229 77q-150 76 -150 168q0 76 66 76q55 0 110 -152q135 -96 350 -96q207 0 357 86q63 137 119 137q61 0 61 -69q0 -86 -135 -156q-92 -47 -207 -69q-29 -115 -47 -232q186 23 209 23 q262 0 420 -105q188 -123 188 -370q0 -240 -182 -388q-170 -135 -416 -135q-92 0 -199 4q4 -25 49 -168q70 -23 220 -104q100 -55 100 -133q0 -70 -61 -70q-55 0 -121 140q-152 92 -365 92q-209 0 -342 -95q-53 -141 -108 -141q-66 0 -66 76zM680 762q0 -211 47 -422 q82 -12 178 -12q172 0 264.5 96t92.5 270q0 197 -106.5 306.5t-303.5 109.5q-88 0 -145 -12q-27 -148 -27 -336z" />
<glyph unicode="&#xdf;" horiz-adv-x="804" d="M0 -414l109 78v1483q182 113 294 180q29 -10 82 -35q35 -23 140 -145q74 -86 73 -186q0 -102 -69 -193l-117 -72q-10 -27 -10 -51q0 -84 135 -178q104 -59 209 -121q10 -59 10 -106q0 -115 -83 -196t-198 -81q-135 0 -284 119l164 82q111 -86 213 -88q25 41 24 106 q0 35 -6 74q-76 43 -221 133q-129 88 -129 203q0 45 22 92q106 72 117 80q61 55 62 123q0 90 -74 184q-70 88 -156 125l-33 -20v-1487l-239 -152z" />
<glyph unicode="&#xe0;" d="M59 133l66 33v520q80 41 242 119q84 -45 125 -86v8l163 84v-641l158 -113l-166 -84l-104 76q-152 -78 -213 -78q-45 0 -133 62q-40 28 -138 100zM250 1067q0 35 57 70q43 20 88 41l21 -43q-39 -18 -39 -31q0 -31 88 -72l115 -49l-131 -65l-123 40q-76 66 -76 109z M291 172q119 -84 129 -84q33 0 72 29v389q-51 76 -201 162v-496z" />
<glyph unicode="&#xe1;" d="M59 133l66 33v520q80 41 242 119q84 -45 125 -86v8l163 84v-641l158 -113l-166 -84l-104 76q-152 -78 -213 -78q-45 0 -133 62q-40 28 -138 100zM199 926q41 12 98 49q70 45 70 78q0 23 -70 57l145 74q70 -35 70 -84q0 -74 -111 -144q-16 -10 -174 -90zM291 172 q119 -84 129 -84q33 0 72 29v389q-51 76 -201 162v-496z" />
<glyph unicode="&#xe2;" d="M59 133l66 33v520q80 41 242 119q84 -45 125 -86v8l163 84v-641l158 -113l-166 -84l-104 76q-152 -78 -213 -78q-45 0 -133 62q-40 28 -138 100zM133 881l143 176q18 25 107 121q18 20 27 8l22 -33q68 -150 242 -164l-146 -71q-98 0 -172 118l-67 -78zM291 172 q119 -84 129 -84q33 0 72 29v389q-51 76 -201 162v-496z" />
<glyph unicode="&#xe3;" d="M59 133l66 33v520q80 41 242 119q84 -45 125 -86v8l163 84v-641l158 -113l-166 -84l-104 76q-152 -78 -213 -78q-45 0 -133 62q-40 28 -138 100zM113 979q74 41 219 131l188 -63l27 24l63 62l54 -41l-121 -115l-90 -45l-179 67l-32 -22l-99 -49zM291 172q119 -84 129 -84 q33 0 72 29v389q-51 76 -201 162v-496z" />
<glyph unicode="&#xe4;" d="M59 133l66 33v520q80 41 242 119q84 -45 125 -86v8l163 84v-641l158 -113l-166 -84l-104 76q-152 -78 -213 -78q-45 0 -133 62q-40 28 -138 100zM141 1053l111 55l98 -123l-108 -55zM291 172q119 -84 129 -84q33 0 72 29v389q-51 76 -201 162v-496zM358 1053l111 55 l98 -123l-108 -55z" />
<glyph unicode="&#xe5;" d="M59 133l66 33v520q80 41 242 119q84 -45 125 -86v8l163 84v-641l158 -113l-166 -84l-104 76q-152 -78 -213 -78q-45 0 -133 62q-40 28 -138 100zM211 958q0 43 61 101q45 43 66 53l47 25q4 -2 6 -7q6 10 47 31q113 -29 113 -94q0 -86 -127 -149l-98 -50q-115 29 -115 90z M291 172q119 -84 129 -84q33 0 72 29v389q-51 76 -201 162v-496zM336 1012q0 -37 57 -58q35 35 35 64q0 37 -57 57q-35 -34 -35 -63z" />
<glyph unicode="&#xe6;" horiz-adv-x="946" d="M49 119l51 33v147l365 215v90q-98 63 -180 72l-152 -150l-43 41l248 244q92 0 201 -66l131 66q129 2 228 -94t110 -228l-377 -217v-90q100 -61 184 -71l193 196l43 -41l-293 -289q-86 -2 -228 86q-172 -92 -225 -92q-49 0 -133 58zM262 326l4 -154q117 -86 174 -86 q16 0 25 4v350zM631 340l205 115q0 92 -56.5 154.5t-148.5 80.5v-350z" />
<glyph unicode="&#xe7;" horiz-adv-x="606" d="M35 152l80 38l-2 451q47 37 145 107q92 63 160 63q63 0 139 -78q33 -37 119 -129l-162 -82q-31 35 -94 103q-70 72 -105 71q-8 0 -22 -2l-14 -14v-500q45 -33 88 -67q53 -35 100 -35t98 55q27 31 80 90l39 -41q-18 -18 -70 -76q-133 -145 -245 -145q-82 0 -174 68 q-43 33 -160 123zM242 4l120 59q147 -47 148 -135q0 -88 -137 -190l-88 -45l-17 28q117 80 117 158t-143 125z" />
<glyph unicode="&#xe8;" horiz-adv-x="616" d="M51 156l86 43v512l205 100q115 2 210 -60.5t128 -168.5l-377 -375v-25q100 -61 184 -71l193 196l43 -41l-293 -289q-121 -1 -379 179zM250 1067q0 35 57 70q43 20 88 41l21 -43q-39 -18 -39 -31q0 -31 88 -72l115 -49l-131 -65l-123 40q-76 66 -76 109zM303 305l203 201 q-47 150 -203 184v-385z" />
<glyph unicode="&#xe9;" horiz-adv-x="616" d="M51 156l86 43v512l205 100q115 2 210 -60.5t128 -168.5l-377 -375v-25q100 -61 184 -71l193 196l43 -41l-293 -289q-121 -1 -379 179zM199 926q41 12 98 49q70 45 70 78q0 23 -70 57l145 74q70 -35 70 -84q0 -74 -111 -144q-16 -10 -174 -90zM303 305l203 201 q-47 150 -203 184v-385z" />
<glyph unicode="&#xea;" horiz-adv-x="616" d="M51 156l86 43v512l205 100q115 2 210 -60.5t128 -168.5l-377 -375v-25q100 -61 184 -71l193 196l43 -41l-293 -289q-121 -1 -379 179zM133 881l143 176q18 25 107 121q18 20 27 8l22 -33q68 -150 242 -164l-146 -71q-98 0 -172 118l-67 -78zM303 305l203 201 q-47 150 -203 184v-385z" />
<glyph unicode="&#xeb;" horiz-adv-x="616" d="M51 156l86 43v512l205 100q115 2 210 -60.5t128 -168.5l-377 -375v-25q100 -61 184 -71l193 196l43 -41l-293 -289q-121 -1 -379 179zM156 1053l108 55l101 -123l-109 -55zM303 305l203 201q-47 150 -203 184v-385zM373 1053l108 55l101 -123l-109 -55z" />
<glyph unicode="&#xec;" horiz-adv-x="448" d="M49 733l166 84l143 -117v-546l138 -101l-166 -82l-242 179l105 51v417zM86 1067q0 35 57 70q43 20 88 41l21 -43q-39 -18 -39 -31q0 -31 88 -72l115 -49l-129 -65l-125 40q-76 66 -76 109z" />
<glyph unicode="&#xed;" horiz-adv-x="448" d="M49 733l166 84l143 -117v-546l138 -101l-166 -82l-242 179l105 51v417zM49 926q41 12 98 49q70 45 70 78q0 23 -70 57l146 74q70 -35 69 -84q0 -74 -110 -144q-16 -10 -174 -90z" />
<glyph unicode="&#xee;" horiz-adv-x="448" d="M-4 881l145 176q29 35 105 121q20 20 28 8l23 -33q66 -150 240 -164l-144 -71q-98 0 -172 118l-69 -78zM49 733l166 84l143 -117v-546l138 -101l-166 -82l-242 179l105 51v417z" />
<glyph unicode="&#xef;" horiz-adv-x="448" d="M6 1053l109 55l100 -123l-111 -55zM49 733l166 84l143 -117v-546l138 -101l-166 -82l-242 179l105 51v417zM223 1053l109 55l100 -123l-110 -55z" />
<glyph unicode="&#xf0;" horiz-adv-x="671" d="M49 143l82 41l-2 414q190 160 371 180q-12 76 -51 115l-349 344l166 80l328 -328q84 -84 82 -334l-2 -495q-74 -57 -148 -117q-90 -59 -174 -59q-80 0 -164 53zM86 1059l383 192l100 -51l-383 -190zM299 164q59 -74 117 -72l39 2q18 14 53 39v565q-125 -14 -209 -77v-457 z" />
<glyph unicode="&#xf1;" horiz-adv-x="722" d="M12 735l164 82l111 -110q61 33 184 104q92 2 151.5 -56.5t59.5 -150.5v-459l141 -100l-166 -82l-227 162l86 43v387q0 123 -110 143l-76 -41v-516l73 -92l-159 -80l-158 160l80 39l-2 414zM141 979q72 41 217 131l189 -63l26 24l64 62l53 -41l-121 -115l-90 -45l-178 67 l-31 -22l-100 -49z" />
<glyph unicode="&#xf2;" horiz-adv-x="677" d="M49 154l78 39l2 440q90 68 141 104q94 66 158 66q59 0 133 -72q45 -45 109 -113l-2 -477q-49 -37 -150 -106q-88 -57 -172 -58q-27 0 -55 9zM250 1067q0 35 57 70q43 20 88 41l21 -43q-39 -18 -39 -31q0 -31 88 -72l115 -49l-131 -65l-123 40q-76 66 -76 109zM293 182 q129 -100 158 -100q25 0 53 27v428q-27 29 -81 86t-89 57q-20 0 -41 -14v-484z" />
<glyph unicode="&#xf3;" horiz-adv-x="677" d="M49 154l78 39l2 440q90 68 141 104q94 66 158 66q59 0 133 -72q45 -45 109 -113l-2 -477q-49 -37 -150 -106q-88 -57 -172 -58q-27 0 -55 9zM225 926q41 10 101 49q70 45 69 78q0 23 -71 57l147 74q68 -35 68 -84q0 -76 -109 -144q-6 -4 -174 -90zM293 182 q129 -100 158 -100q25 0 53 27v428q-27 29 -81 86t-89 57q-20 0 -41 -14v-484z" />
<glyph unicode="&#xf4;" horiz-adv-x="677" d="M49 154l78 39l2 440q90 68 141 104q94 66 158 66q59 0 133 -72q45 -45 109 -113l-2 -477q-49 -37 -150 -106q-88 -57 -172 -58q-27 0 -55 9zM145 881l146 176q23 29 106 121q18 20 27 8l22 -33q68 -150 240 -164l-143 -71q-98 0 -172 118l-70 -78zM293 182 q129 -100 158 -100q25 0 53 27v428q-27 29 -81 86t-89 57q-20 0 -41 -14v-484z" />
<glyph unicode="&#xf5;" horiz-adv-x="677" d="M49 154l78 39l2 440q90 68 141 104q94 66 158 66q59 0 133 -72q45 -45 109 -113l-2 -477q-49 -37 -150 -106q-88 -57 -172 -58q-27 0 -55 9zM141 979q72 41 217 131l189 -63l26 24l64 62l53 -41l-121 -115l-90 -45l-178 67l-31 -22l-100 -49zM293 182q129 -100 158 -100 q25 0 53 27v428q-27 29 -81 86t-89 57q-20 0 -41 -14v-484z" />
<glyph unicode="&#xf6;" horiz-adv-x="677" d="M49 154l78 39l2 440q90 68 141 104q94 66 158 66q59 0 133 -72q45 -45 109 -113l-2 -477q-49 -37 -150 -106q-88 -57 -172 -58q-27 0 -55 9zM182 1053l111 55l98 -123l-108 -55zM293 182q129 -100 158 -100q25 0 53 27v428q-27 29 -81 86t-89 57q-20 0 -41 -14v-484z M399 1053l111 55l98 -123l-108 -55z" />
<glyph unicode="&#xf8;" horiz-adv-x="677" d="M49 154l78 39l2 440q90 68 141 104q94 66 158 66q59 0 133 -72q45 -45 109 -113l-2 -477q-49 -37 -150 -106q-88 -57 -172 -58q-27 0 -55 9zM182 -221l363 1257l71 -20l-362 -1258zM293 182q129 -100 158 -100q25 0 53 27v428q-27 29 -81 86t-89 57q-20 0 -41 -14v-484z " />
<glyph unicode="&#xf9;" horiz-adv-x="753" d="M-2 735l162 82l164 -160v-462l110 -109l92 55v447l-153 147l162 82l155 -151v-476l176 -137l-164 -82l-143 111l-229 -131l-170 166v463zM209 1067q0 35 57 70q43 20 88 41l21 -43q-39 -18 -39 -31q0 -31 88 -72l115 -49l-131 -65l-123 40q-76 66 -76 109z" />
<glyph unicode="&#xfa;" horiz-adv-x="753" d="M-2 735l162 82l164 -160v-462l110 -109l92 55v447l-153 147l162 82l155 -151v-476l176 -137l-164 -82l-143 111l-229 -131l-170 166v463zM211 926q41 10 100 49q70 45 70 78q0 23 -72 57l148 74q68 -35 67 -84q0 -74 -108 -144q-14 -10 -174 -90z" />
<glyph unicode="&#xfb;" horiz-adv-x="753" d="M-2 735l162 82l164 -160v-462l110 -109l92 55v447l-153 147l162 82l155 -151v-476l176 -137l-164 -82l-143 111l-229 -131l-170 166v463zM133 881l143 176q18 25 107 121q18 20 27 8l22 -33q68 -150 242 -164l-146 -71q-98 0 -172 118l-67 -78z" />
<glyph unicode="&#xfc;" horiz-adv-x="753" d="M-2 735l162 82l164 -160v-462l110 -109l92 55v447l-153 147l162 82l155 -151v-476l176 -137l-164 -82l-143 111l-229 -131l-170 166v463zM141 1053l111 55l98 -123l-108 -55zM358 1053l111 55l98 -123l-108 -55z" />
<glyph unicode="&#xfd;" horiz-adv-x="714" d="M342 1000q41 12 98 49q70 45 70 78q0 23 -70 57l145 74q70 -35 70 -84q0 -74 -111 -144q-16 -10 -174 -90zM-72 -586q0 135 181 234q156 84 297 84q174 0 284 -121l-162 -80q-88 94 -229 94q-209 0 -209 -139q0 -174 377 -174q356 0 356 233q0 66 -116 219 q-55 70 -164 209v90l-199 -102l-274 213l77 39v401l-133 123l160 80l139 -145v-475l142 -111l88 45v469l-137 137l163 80l140 -135v-635q57 -72 168 -217q115 -152 114 -231q0 -182 -250 -301q-203 -96 -403 -97q-152 0 -252 35q-158 53 -158 178z" />
<glyph unicode="&#xfe;" horiz-adv-x="630" d="M-14 -508l131 131v1706l-131 82l170 84l125 -80v-686q131 74 178 74q119 0 192 -156v-414l-266 -264l-102 51l-2 -335l-246 -246zM283 195l161 -78l41 41v420q-53 109 -129 108q-20 0 -71 -27z" />
<glyph unicode="&#xff;" horiz-adv-x="714" d="M-72 -586q0 135 181 234q156 84 297 84q174 0 284 -121l-162 -80q-88 94 -229 94q-209 0 -209 -139q0 -174 377 -174q356 0 356 233q0 66 -116 219q-55 70 -164 209v90l-199 -102l-274 213l77 39v401l-133 123l160 80l139 -145v-475l142 -111l88 45v469l-137 137l163 80 l140 -135v-635q57 -72 168 -217q115 -152 114 -231q0 -182 -250 -301q-203 -96 -403 -97q-152 0 -252 35q-158 53 -158 178zM141 1053l111 55l98 -123l-108 -55zM358 1053l111 55l98 -123l-108 -55z" />
<glyph unicode="&#x152;" horiz-adv-x="1968" d="M53 702q0 297 176 533q188 254 465 254h137q20 -4 107 -19q137 -25 340 -24q401 0 559 82q31 18 113 61q39 78 94 97l31 -9q20 -23 20 -51q0 -47 -51 -86q-23 -14 -107 -59q-147 -80 -147 -211q0 -76 51 -176q121 -86 121 -133q0 -59 -59 -60q-86 0 -150 150 q-51 121 -51 221q0 68 29 127q-195 -47 -496 -39q-72 -279 -82 -559q23 0 72 -4t75 -4l76 2q-2 76 56 184q61 117 129 135q6 0 32 2l29 -31q8 -33 -23 -63q-86 -86 -96 -100q-41 -55 -41 -129q0 -111 99 -265q47 -20 65 -63l-4 -29q-23 -23 -51 -22q-55 0 -117 116 q-45 86 -68 177q-33 0 -116.5 2t-116.5 2q2 -344 102 -660h123q176 0 348 -41q-25 55 -24 123q0 98 59 227q70 152 162 152l21 -2q39 -20 38 -59q0 -57 -147 -150q-45 -86 -45 -164t41 -127q33 -37 106 -78q41 -23 95 -55l-4 -8q14 -20 14 -43l-10 -33l-29 -12q-47 8 -78 51 q-168 80 -317 109q-121 23 -330 22q-215 0 -375 -31q-127 -25 -143 -24q-336 0 -529 233q-178 217 -178 561zM340 664q0 -250 88 -428q111 -225 330 -226q117 0 121 2q102 319 102 699q0 330 -86 667q-74 27 -131 27q-236 0 -344 -264q-80 -194 -80 -477z" />
<glyph unicode="&#x153;" horiz-adv-x="985" d="M49 154l78 39v440q47 37 143 106q90 63 158 64q57 0 129 -68l152 76q115 2 210 -60.5t128 -168.5l-377 -375v-25q100 -61 184 -71l193 196l43 -41l-293 -289q-84 -2 -232 89q-127 -88 -219 -89q-27 0 -55 9zM293 182q129 -100 158 -100q25 0 51 27v428q-23 29 -79 86 t-89 57q-20 0 -41 -16v-482zM670 305l202 201q-47 150 -202 184v-385z" />
<glyph unicode="&#x178;" horiz-adv-x="1290" d="M-18 1657q0 55 57 55q45 0 92 -67l-14 2q49 -51 141 -94.5t160 -43.5q139 0 244 76q66 135 118 135q61 0 62 -69q0 -100 -201 -189q20 -133 125 -313q141 -246 164 -299q43 78 125 235q76 154 75 246q0 63 -38 105q-78 27 -144 80q-82 66 -82 131q0 76 66 75q39 0 78 -71 q23 -53 45 -105q86 -51 194 -51q178 0 320 152q70 74 86 73q61 0 61 -69q0 -70 -67 -113q-20 -12 -131 -55q-219 -84 -297 -242q-117 -233 -256 -520q0 -360 108 -703q330 -86 330 -221q0 -55 -57 -55q-55 0 -127 125q-154 96 -373 96q-227 0 -363 -106q-59 -123 -112 -123 q-61 0 -62 69q0 84 156 160q117 57 227 78q102 322 101 690q-53 145 -226 363q-238 297 -268 344q-23 10 -117 47q-51 20 -133 51q-67 39 -67 121z" />
<glyph unicode="&#x2c6;" d="M133 881l143 176q18 25 107 121q18 20 27 8l22 -33q68 -150 242 -164l-146 -71q-98 0 -172 118l-67 -78z" />
<glyph unicode="&#x2dc;" d="M113 979q74 41 219 131l188 -63l27 24l63 62l54 -41l-121 -115l-90 -45l-179 67l-32 -22l-99 -49z" />
<glyph unicode="&#x2000;" horiz-adv-x="1091" />
<glyph unicode="&#x2001;" horiz-adv-x="2183" />
<glyph unicode="&#x2002;" horiz-adv-x="1091" />
<glyph unicode="&#x2003;" horiz-adv-x="2183" />
<glyph unicode="&#x2004;" horiz-adv-x="727" />
<glyph unicode="&#x2005;" horiz-adv-x="544" />
<glyph unicode="&#x2006;" horiz-adv-x="362" />
<glyph unicode="&#x2007;" horiz-adv-x="362" />
<glyph unicode="&#x2008;" horiz-adv-x="272" />
<glyph unicode="&#x2009;" horiz-adv-x="436" />
<glyph unicode="&#x200a;" horiz-adv-x="120" />
<glyph unicode="&#x2010;" horiz-adv-x="430" d="M72 330l303 151l94 -47l-305 -151zM72 506l303 151l94 -45l-305 -153z" />
<glyph unicode="&#x2011;" horiz-adv-x="430" d="M72 330l303 151l94 -47l-305 -151zM72 506l303 151l94 -45l-305 -153z" />
<glyph unicode="&#x2012;" horiz-adv-x="430" d="M72 330l303 151l94 -47l-305 -151zM72 506l303 151l94 -45l-305 -153z" />
<glyph unicode="&#x2013;" horiz-adv-x="1024" d="M205 512v205h614v-205h-614z" />
<glyph unicode="&#x2014;" horiz-adv-x="2048" d="M205 512v205h1638v-205h-1638z" />
<glyph unicode="&#x2018;" horiz-adv-x="380" d="M63 1229l222 -234l49 47l-123 162q20 72 197 107l-175 88q-66 -14 -114 -58q-52 -49 -56 -112z" />
<glyph unicode="&#x2019;" horiz-adv-x="380" d="M2 1311l172 88q68 -14 117 -59.5t53 -110.5l-221 -234l-47 47l121 162q-19 72 -195 107z" />
<glyph unicode="&#x201a;" horiz-adv-x="380" d="M2 86l172 86q70 -12 118 -57t52 -113l-221 -233l-47 47l121 164q-19 71 -195 106z" />
<glyph unicode="&#x201c;" horiz-adv-x="679" d="M35 1425l184 246l160 -80l-170 -227q39 -104 143 -162l-28 -53q-127 63 -177 104q-77 66 -112 172zM307 1358l185 246l159 -80l-170 -230q39 -104 144 -159l-29 -56q-125 61 -176 107q-78 68 -113 172z" />
<glyph unicode="&#x201d;" horiz-adv-x="679" d="M29 1524l170 -230q-41 -104 -144 -159l27 -56q127 61 178 107q78 68 111 172l-183 246zM301 1591l170 -227q-41 -104 -143 -162l26 -53q129 63 178 104q78 66 111 172l-182 246z" />
<glyph unicode="&#x201e;" horiz-adv-x="679" d="M29 111l170 -230q-41 -104 -144 -159l27 -56q127 61 178 107q78 68 111 172l-183 246zM301 178l170 -227q-41 -104 -143 -162l26 -53q129 63 178 104q78 66 111 172l-182 246z" />
<glyph unicode="&#x2026;" horiz-adv-x="1327" d="M938 150l162 81l174 -168l-162 -81zM495 150l162 81l174 -168l-162 -81zM53 150l162 81l174 -168l-162 -81z" />
<glyph unicode="&#x202f;" horiz-adv-x="436" />
<glyph unicode="&#x205f;" horiz-adv-x="544" />
<glyph unicode="&#x2122;" horiz-adv-x="3565" d="M1612 -215q0 68 61 113q25 12 115 59q57 31 211 109q-274 641 -274 1046q0 238 104 397q123 186 350 187q338 0 447 -314q109 313 450 314q229 0 353 -191q106 -162 106 -403q0 -387 -274 -1030q59 -27 188 -76q113 -43 131 -55q63 -41 64 -123q0 -59 -58 -60 q-59 0 -127 131q-391 197 -833 197q-479 0 -836 -240q-59 -135 -117 -135q-61 0 -61 74zM1839 909q0 -246 244 -813q143 49 299 70q162 143 162 649q0 264 -53 412q-80 219 -285 219q-195 0 -291 -180q-76 -144 -76 -357zM2701 801q0 -498 162 -637q158 -20 312 -66 q246 612 245 776q0 213 -73 371q-94 201 -267 201q-242 0 -325 -205q-54 -131 -54 -440zM6 1657q0 51 53 51q70 0 162 -162q174 -94 649 -94q446 0 639 107q88 158 160 157q51 0 51 -53q0 -45 -49 -90q-27 -25 -80 -57q-160 -266 -159 -463q0 -37 4 -72q43 -43 127 -133 q88 -98 88 -148q0 -29 -20.5 -57.5t-47.5 -28.5q-121 0 -188 172q-51 129 -52 267q0 186 97 381q-156 -53 -404 -66q-84 -334 -84 -645q0 -334 109 -680l194 -61q115 -53 115 -146q0 -55 -55 -55q-57 0 -127 121q-150 86 -354 86q-219 0 -355 -101q-55 -119 -110 -118 q-59 0 -60 69q0 88 148 158q104 49 223 70q102 322 102 649q0 319 -84 653q-258 14 -413 59q51 -129 51 -278q0 -178 -41 -320q-61 -215 -201 -215q-27 0 -47 29t-20 57q0 55 69 125l111 105q43 111 43 227q0 176 -105 346q-139 86 -139 154z" />
<glyph unicode="&#xe000;" horiz-adv-x="835" d="M0 835h835v-835h-835v835z" />
<glyph unicode="&#xfb01;" horiz-adv-x="976" d="M606 733l164 84l143 -117v-546l138 -101l-166 -82l-242 179l105 51l2 417zM639 1102l164 82l174 -166l-164 -82zM-25 711v86h236v350q182 113 295 178q176 -59 225 -217l-160 -80q-39 117 -161 168l-33 -20v-379h307v-86h-307v-1022l-240 -152l-35 49l109 78v1047h-236z " />
<glyph unicode="&#xfb02;" horiz-adv-x="974" d="M575 1411l166 84l127 -80v-1245l224 -137l-168 -84l-328 198l109 56v1126zM-25 711v86h236v350q182 113 295 178q176 -59 225 -217l-160 -80q-39 117 -161 168l-33 -20v-379h307v-86h-307v-1022l-240 -152l-35 49l109 78v1047h-236z" />
<glyph unicode="&#xfb03;" horiz-adv-x="1531" d="M1161 733l164 84l143 -117v-546l138 -101l-166 -82l-242 179l105 51l2 417zM1194 1102l164 82l174 -166l-164 -82zM530 711v86h236v350q182 113 295 178q176 -59 225 -217l-160 -80q-39 117 -161 168l-33 -20v-379h307v-86h-307v-1022l-240 -152l-35 49l109 78v1047h-236 zM-25 711v86h236v350q182 113 295 178q176 -59 225 -217l-160 -80q-39 117 -161 168l-33 -20v-379h307v-86h-307v-1022l-240 -152l-35 49l109 78v1047h-236z" />
<glyph unicode="&#xfb04;" horiz-adv-x="1529" d="M1130 1411l166 84l127 -80v-1245l224 -137l-168 -84l-328 198l109 56v1126zM530 711v86h236v350q182 113 295 178q176 -59 225 -217l-160 -80q-39 117 -161 168l-33 -20v-379h307v-86h-307v-1022l-240 -152l-35 49l109 78v1047h-236zM-25 711v86h236v350q182 113 295 178 q176 -59 225 -217l-160 -80q-39 117 -161 168l-33 -20v-379h307v-86h-307v-1022l-240 -152l-35 49l109 78v1047h-236z" />
</font>
</defs>
</svg>
